#N canvas 703 144 610 262 12;
#X obj 14 54 cnv 1 550 1 empty empty empty 8 12 0 13 #000000 #000000 0;
#X obj 15 205 cnv 1 550 1 empty empty empty 8 12 0 13 #000000 #000000 0;
#X text 27 69 The 2pi object outputs 2pi., f 73;
#X obj 29 19 2pi;
#N canvas 729 137 575 229 reference 0;
#X obj 10 51 cnv 5 550 5 empty empty INLETS: 8 18 0 13 #202020 #000000 0;
#X obj 11 99 cnv 2 550 2 empty empty OUTLET: 8 12 0 13 #202020 #000000 0;
#X obj 11 136 cnv 2 550 2 empty empty ARGUMENT: 8 12 0 13 #202020 #000000 0;
#X obj 10 173 cnv 5 550 5 empty empty empty 8 18 0 13 #202020 #000000 0;
#X obj 32 16 2pi;
#X text 98 15 - 2pi constant.;
#X text 132 146 NONE;
#X text 118 70 bang -;
#X text 170 70 output the 2pi value., f 41;
#X text 111 109 float -;
#X text 171 109 the 2pi float value., f 41;
#X restore 420 18 pd reference;
#X text 518 19 <= click;
#X text 28 218 see also:;
#X obj 104 218 pi;
#X obj 32 100 bng 19 250 50 0 empty empty empty 0 -10 0 12 #fcfcfc #000000 #000000;
#X obj 32 128 2pi;
#X floatatom 32 159 8 0 0 0 - - - 0;
#X text 95 18 - 2pi constant.;
#X connect 8 0 9 0;
#X connect 9 0 10 0;
