#N canvas 276 444 617 354 12;
#X obj 14 54 cnv 1 550 1 empty empty empty 8 12 0 13 #000000 #000000 0;
#X obj 17 303 cnv 1 550 1 empty empty empty 8 12 0 13 #000000 #000000 0;
#N canvas 772 153 580 273 reference 0;
#X obj 10 51 cnv 5 550 5 empty empty INLETS: 8 18 0 13 #202020 #000000 0;
#X obj 11 163 cnv 2 550 2 empty empty OUTLET: 8 12 0 13 #202020 #000000 0;
#X obj 11 200 cnv 2 550 2 empty empty ARGUMENT: 8 12 0 13 #202020 #000000 0;
#X obj 11 237 cnv 5 550 5 empty empty empty 8 18 0 13 #202020 #000000 0;
#X text 103 99 signal -;
#X text 103 173 signal -;
#X text 170 99 source., f 46;
#X obj 29 19 alp~;
#X text 97 18 - 1st order all pass filter.;
#X obj 9 127 cnv 1 550 1 empty empty 2nd: 8 12 0 13 #7c7c7c #000000 0;
#X obj 9 84 cnv 1 550 1 empty empty 1st: 8 12 0 13 #7c7c7c #000000 0;
#X text 110 136 float -;
#X text 170 173 filtered., f 46;
#X text 170 137 center frequency of anti-phase., f 46;
#X text 110 211 float -;
#X text 170 212 center frequency of anti-phase., f 46;
#X restore 438 19 pd reference;
#X text 536 20 <= click;
#X text 31 314 see also:;
#X obj 54 114 bng 19 250 50 0 empty empty empty 0 -10 0 12 #fcfcfc #000000 #000000;
#X obj 86 182 impuls~;
#N canvas 0 50 450 250 (subpatch) 0;
#X array \$0-array1 10 float 2;
#X coords 0 1 10 -1 200 140 1 0 0;
#X restore 213 131 graph;
#X obj 54 251 tabwrite~ \$0-array1;
#X msg 446 142 \; pd dsp \$1;
#X text 471 116 DSP on/off;
#X obj 446 117 tgl 17 0 empty empty empty 17 7 0 10 #dfdfdf #000000 #000000 0 1;
#X obj 29 19 alp~;
#X text 97 18 - 1st order all pass filter.;
#X msg 151 182 5000;
#X obj 54 147 t b b;
#X obj 78 216 alp~ 1000;
#X obj 151 151 bng 19 250 50 0 empty empty empty 0 -10 0 12 #fcfcfc #000000 #000000;
#X text 27 69 The alp~ object 1st order all pass filter., f 73;
#X connect 5 0 15 0;
#X connect 6 0 16 0;
#X connect 11 0 9 0;
#X connect 14 0 16 1;
#X connect 15 0 8 0;
#X connect 15 1 6 0;
#X connect 16 0 8 0;
#X connect 17 0 14 0;
