#N canvas 156 156 626 431 12;
#X obj 14 54 cnv 1 550 1 empty empty empty 8 12 0 13 #000000 #000000 0;
#X obj 16 376 cnv 1 550 1 empty empty empty 8 12 0 13 #000000 #000000 0;
#N canvas 772 153 580 367 reference 0;
#X obj 10 51 cnv 5 550 5 empty empty INLETS: 8 18 0 13 #202020 #000000 0;
#X obj 12 201 cnv 2 550 2 empty empty OUTLET: 8 12 0 13 #202020 #000000 0;
#X obj 11 241 cnv 2 550 2 empty empty ARGUMENT: 8 12 0 13 #202020 #000000 0;
#X obj 11 344 cnv 5 550 5 empty empty empty 8 18 0 13 #202020 #000000 0;
#X text 105 96 signal -;
#X text 106 211 signal -;
#X text 172 96 source., f 46;
#X obj 11 123 cnv 1 550 1 empty empty 2nd: 8 12 0 13 #7c7c7c #000000 0;
#X obj 11 81 cnv 1 550 1 empty empty 1st: 8 12 0 13 #7c7c7c #000000 0;
#X text 112 132 float -;
#X text 173 211 filtered., f 46;
#X text 172 133 center frequency of anti-phase., f 46;
#X text 112 276 float -;
#X text 172 277 center frequency of anti-phase., f 46;
#X obj 29 19 apf~;
#X text 97 18 - 2nd order all pass filter.;
#X obj 12 161 cnv 1 550 1 empty empty 3rd: 8 12 0 13 #7c7c7c #000000 0;
#X text 113 170 float -;
#X text 173 171 Q factor., f 46;
#X obj 11 306 cnv 1 550 1 empty empty 2nd: 8 12 0 13 #7c7c7c #000000 0;
#X obj 11 265 cnv 1 550 1 empty empty 1st: 8 12 0 13 #7c7c7c #000000 0;
#X text 112 315 float -;
#X text 171 314 Q factor, f 46;
#X restore 438 19 pd reference;
#X text 536 20 <= click;
#X text 27 391 see also:;
#X obj 32 191 bng 19 250 50 0 empty empty empty 0 -10 0 12 #fcfcfc #000000 #000000;
#X obj 56 260 impuls~;
#N canvas 0 50 450 250 (subpatch) 0;
#X array \$0-array1 10 float 2;
#X coords 0 1 10 -1 200 140 1 0 0;
#X restore 210 208 graph;
#X obj 32 328 tabwrite~ \$0-array1;
#X msg 444 224 \; pd dsp \$1;
#X text 469 198 DSP on/off;
#X obj 444 199 tgl 17 0 empty empty empty 17 7 0 10 #dfdfdf #000000 #000000 0 1;
#X msg 119 260 5000;
#X obj 32 224 t b b;
#X obj 119 229 bng 19 250 50 0 empty empty empty 0 -10 0 12 #fcfcfc #000000 #000000;
#X obj 29 19 apf~;
#X text 97 18 - 2nd order all pass filter.;
#X text 27 69 The apf~ object 2nd order all pass filter., f 73;
#X obj 56 293 apf~ 1000 0.5;
#X obj 162 228 bng 19 250 50 0 empty empty empty 0 -10 0 12 #fcfcfc #000000 #000000;
#X msg 162 260 10;
#X text 35 171 a;
#X text 123 208 b;
#X text 166 207 c;
#X text 44 120 try 2nd : click b \, a : apf 5000Hz Q=0.5;
#X text 44 101 try 1st : click a : apf 1000Hz Q=0.5;
#X text 44 139 try 3rd : click c \, a : apf 5000Hz Q=10;
#X connect 5 0 13 0;
#X connect 6 0 18 0;
#X connect 11 0 9 0;
#X connect 12 0 18 1;
#X connect 13 0 8 0;
#X connect 13 1 6 0;
#X connect 14 0 12 0;
#X connect 18 0 8 0;
#X connect 19 0 20 0;
#X connect 20 0 18 2;
