#N canvas 283 312 471 300 12;
#X obj 49 35 inlet~;
#X obj 49 235 outlet~;
#X obj 49 196 biquad~;
#X obj 104 167 coef2biquad;
#X obj 252 99 samplerate~;
#X obj 220 35 loadbang;
#X obj 292 35 receive pd-dsp-started;
#X obj 104 35 inlet;
#X obj 162 35 inlet;
#X obj 220 68 t b b;
#X obj 104 132 iir2befcoef \$1 \$2;
#X obj 130 68 t b f;
#X connect 0 0 2 0;
#X connect 2 0 1 0;
#X connect 3 0 2 0;
#X connect 4 0 10 2;
#X connect 5 0 9 0;
#X connect 6 0 9 0;
#X connect 7 0 10 0;
#X connect 8 0 11 0;
#X connect 9 0 10 0;
#X connect 9 1 4 0;
#X connect 10 0 3 0;
#X connect 11 0 10 0;
#X connect 11 1 10 1;
