#N canvas 78 78 629 328 12;
#X obj 14 54 cnv 1 550 1 empty empty empty 8 12 0 13 #000000 #000000 0;
#X obj 18 270 cnv 1 550 1 empty empty empty 8 12 0 13 #000000 #000000 0;
#N canvas 772 153 580 367 reference 0;
#X obj 10 51 cnv 5 550 5 empty empty INLETS: 8 18 0 13 #202020 #000000 0;
#X obj 12 201 cnv 2 550 2 empty empty OUTLET: 8 12 0 13 #202020 #000000 0;
#X obj 11 241 cnv 2 550 2 empty empty ARGUMENT: 8 12 0 13 #202020 #000000 0;
#X obj 11 344 cnv 5 550 5 empty empty empty 8 18 0 13 #202020 #000000 0;
#X text 105 96 signal -;
#X text 106 211 signal -;
#X text 172 96 source., f 46;
#X obj 11 123 cnv 1 550 1 empty empty 2nd: 8 12 0 13 #7c7c7c #000000 0;
#X obj 11 81 cnv 1 550 1 empty empty 1st: 8 12 0 13 #7c7c7c #000000 0;
#X text 112 132 float -;
#X text 173 211 filtered., f 46;
#X text 112 276 float -;
#X obj 12 161 cnv 1 550 1 empty empty 3rd: 8 12 0 13 #7c7c7c #000000 0;
#X text 113 170 float -;
#X text 173 171 Q factor., f 46;
#X obj 11 306 cnv 1 550 1 empty empty 2nd: 8 12 0 13 #7c7c7c #000000 0;
#X obj 11 265 cnv 1 550 1 empty empty 1st: 8 12 0 13 #7c7c7c #000000 0;
#X text 112 315 float -;
#X text 171 314 Q factor, f 46;
#X text 172 133 center frequency., f 46;
#X text 172 277 center frequency., f 46;
#X obj 29 19 bpf~;
#X text 98 18 - 2nd order band pass filter.;
#X restore 438 19 pd reference;
#X text 536 20 <= click;
#X text 29 285 see also:;
#X msg 440 171 \; pd dsp \$1;
#X text 465 145 DSP on/off;
#X obj 440 146 tgl 17 0 empty empty empty 17 7 0 10 #dfdfdf #000000 #000000 0 1;
#X obj 49 115 noise~;
#X obj 49 193 output~;
#X floatatom 119 115 5 0 0 0 - - - 0;
#X floatatom 177 115 5 0 0 0 - - - 0;
#X obj 29 19 bpf~;
#X obj 50 153 bpf~ 1000 0.5;
#X text 97 18 - 2nd order band pass filter.;
#X text 27 69 The bpf~ object 2nd order band pass filter., f 73;
#X connect 7 0 5 0;
#X connect 8 0 13 0;
#X connect 10 0 13 1;
#X connect 11 0 13 2;
#X connect 13 0 9 0;
#X connect 13 0 9 1;
