#N canvas 404 348 450 300 12;
#X obj 59 72 unpack f f f f f;
#X obj 140 114 * -1;
#X obj 182 115 * -1;
#X obj 59 184 pack f f f f f;
#X obj 59 115 t b f;
#X obj 59 152 f;
#X obj 59 39 inlet;
#X obj 59 228 outlet;
#X connect 0 0 4 0;
#X connect 0 1 3 3;
#X connect 0 2 3 4;
#X connect 0 3 1 0;
#X connect 0 4 2 0;
#X connect 1 0 5 1;
#X connect 2 0 3 1;
#X connect 3 0 7 0;
#X connect 4 0 5 0;
#X connect 4 1 3 2;
#X connect 5 0 3 0;
#X connect 6 0 0 0;
