#N canvas 692 298 613 532 12;
#X obj 30 18 coef2biquad;
#X obj 14 54 cnv 1 550 1 empty empty empty 8 12 0 13 #000000 #000000 0;
#X text 27 69 The coef2biquad object is coefficient list modify for biquad., f 73;
#N canvas 729 137 575 209 reference 0;
#X obj 10 51 cnv 5 550 5 empty empty INLETS: 8 18 0 13 #202020 #000000 0;
#X obj 11 99 cnv 2 550 2 empty empty OUTLET: 8 12 0 13 #202020 #000000 0;
#X obj 11 136 cnv 2 550 2 empty empty ARGUMENT: 8 12 0 13 #202020 #000000 0;
#X obj 10 173 cnv 5 550 5 empty empty empty 8 18 0 13 #202020 #000000 0;
#X text 132 146 NONE;
#X obj 30 16 coef2biquad;
#X text 118 70 list -;
#X text 119 108 list -;
#X text 171 109 biquad coefficient list (fb1 \, fb2 \, ff1 \, ff2 \, ff3);
#X text 170 70 iir2 coefficient list (a0 \, a1 \, a2 \, b1 \, b2), f 46;
#X text 135 16 - iir2 coefficient list modify for biquad;
#X restore 420 18 pd reference;
#X text 518 19 <= click;
#X text 117 18 - iir2 coefficient list modify for biquad;
#X text 65 182 +;
#X text 83 184 |-;
#X text 76 234 (+)---<|---*---|>---(+);
#X text 12 169 x(n) >---(+)--------*---|>---(+)---> y(n);
#X text 204 182 +;
#X text 223 184 |+;
#X text 153 184 |;
#X text 139 201 [Z-1];
#X text 153 218 |;
#X text 83 201 |;
#X text 83 217 |;
#X text 223 201 |;
#X text 223 217 |;
#X text 206 247 +;
#X text 223 250 |+;
#X text 153 250 |;
#X text 138 267 [Z-1];
#X text 153 284 |;
#X text 83 300 '----<|---*---|>----';
#X text 223 266 |;
#X text 223 282 |;
#X text 83 267 |;
#X text 83 283 |;
#X text 83 250 | +;
#X text 70 254 +;
#X text 179 152 a0;
#X text 181 217 a1;
#X text 182 284 a2;
#X text 116 219 b1;
#X text 116 284 b2;
#X text 368 182 +;
#X text 379 234 (+)---<|---*---|>---(+);
#X text 315 169 x(n) >---(+)--------*---|>---(+)---> y(n);
#X text 507 182 +;
#X text 526 184 |+;
#X text 456 184 |;
#X text 442 201 [Z-1];
#X text 456 218 |;
#X text 386 201 |;
#X text 386 217 |;
#X text 526 201 |;
#X text 526 217 |;
#X text 509 247 +;
#X text 526 250 |+;
#X text 456 250 |;
#X text 441 267 [Z-1];
#X text 456 284 |;
#X text 386 300 '----<|---*---|>----';
#X text 526 266 |;
#X text 526 282 |;
#X text 386 267 |;
#X text 386 283 |;
#X text 386 250 | +;
#X text 373 254 +;
#X text 482 152 ff1;
#X text 484 217 ff2;
#X text 485 284 ff3;
#X text 415 220 fb1;
#X text 414 286 fb2;
#X text 386 184 |+;
#X obj 54 415 coef2biquad;
#X listbox 54 446 13 0 0 0 - - - 0;
#X msg 54 384 1 2 3 4 5;
#X obj 54 352 bng 19 250 50 0 empty empty empty 0 -10 0 12 #fcfcfc #000000 #000000;
#X text 112 321 iir2 coefficient;
#X text 402 320 biquad coefficient;
#X text 287 237 --To-->;
#X obj 14 486 cnv 1 550 1 empty empty empty 8 12 0 13 #000000 #000000 0;
#X text 27 497 see also:;
#X text 27 95 iir2 coefficient list (a0 \, a1 \, a2 \, b1 \, b2) modify to;
#X text 29 115 biquad coefficient list (fb1 \, fb2 \, ff1 \, ff2 \, ff3);
#X connect 66 0 67 0;
#X connect 68 0 66 0;
#X connect 69 0 68 0;
