#N canvas 181 224 699 624 12;
#X obj 179 25 hann \$0 \$1;
#X obj 53 25 inlet~;
#X obj 52 120 tabwrite~ \$0-in;
#N canvas 0 50 450 250 (subpatch) 0;
#X array \$0-in 8192 float 2;
#X coords 0 250 8192 249 200 140 0;
#X restore 461 26 graph;
#X msg 340 128 \; \$1-in resize \$2;
#X obj 340 103 pack;
#X obj 340 51 t b b;
#X obj 340 27 loadbang;
#X obj 340 75 i \$0;
#X obj 382 76 i \$1;
#X obj 121 25 inlet;
#X obj 53 76 *~;
#X obj 121 58 tabplay~ \$0-hann;
#N canvas 54 123 967 726 fft 0;
#X obj 36 19 inlet~;
#N canvas 52 52 450 250 (subpatch) 0;
#X array \$0-fft 4097 float 2;
#X coords 0 250 4097 249 200 140 0;
#X restore 280 235 graph;
#X obj 36 253 tabwrite~ \$0-fft;
#X obj 332 80 i \$1;
#X obj 281 80 i \$0;
#X obj 281 21 loadbang;
#X obj 281 49 t b b;
#X obj 281 158 pack;
#X msg 281 184 \; \$1-fft resize \$2 \;;
#X obj 427 21 block~ \$1;
#X obj 35 45 rfft~;
#X obj 36 73 *~;
#X obj 67 73 *~;
#X obj 36 102 +~;
#X obj 35 131 sqrt~;
#X obj 36 161 /~;
#X obj 332 109 / 2;
#X obj 37 190 rmstodb~;
#X obj 36 220 -~ 100;
#X obj 332 139 + 1;
#N canvas 52 52 450 250 (subpatch) 0;
#X array \$0-fftrescale 16384 float 2;
#X coords 0 0 16384 -100 400 280 2 0 0;
#X restore 50 420 graph;
#X obj 590 102 until;
#X msg 590 74 16384;
#X obj 590 47 t b b;
#X obj 590 130 f;
#X obj 639 130 + 1;
#X msg 669 92 0;
#X obj 590 207 *;
#X obj 839 169 log 10;
#X msg 839 87 10;
#X obj 713 88 samplerate~;
#X obj 713 18 loadbang;
#X obj 786 18 receive pd-dsp-started;
#X obj 713 114 / 2;
#X obj 713 157 log 10;
#X obj 713 188 -;
#X obj 713 47 t b b;
#X obj 590 234 +;
#X obj 590 178 / 16383;
#X floatatom 590 413 10 0 0 0 - - - 0;
#X obj 590 317 pow, f 4;
#X msg 590 289 10;
#X obj 590 261 t b f, f 6;
#X obj 590 353 /;
#X floatatom 799 133 5 0 0 0 - - - 0;
#X obj 590 382 *;
#X floatatom 664 172 5 0 0 0 - - - 0;
#X floatatom 495 245 5 0 0 0 - - - 0;
#X obj 568 441 tabread4 \$0-fft;
#X obj 590 153 t f f;
#X obj 588 494 tabwrite \$0-fftrescale;
#X obj 50 401 hsl 401 19 10 22050 1 0 \$0-s-freq \$0-r-freq empty -2 -10 0 12 #fcfcfc #000000 #000000 0 1;
#X floatatom 226 383 7 0 0 0 - \$0-s-freq \$0-s-number 0;
#X msg 799 257 range 10 \$1;
#X obj 799 298 s \$0-r-freq;
#X obj 588 468 clip -100 0;
#X obj 166 280 s \$0-fftbang;
#X obj 484 545 r \$0-s-number;
#X msg 484 585 set \$1;
#X obj 484 625 s \$0-r-freq;
#X obj 131 105 bang~;
#X obj 184 71 bng 19 250 50 0 empty empty empty 0 -10 0 12 #fcfcfc #000000 #000000;
#X msg 184 104 0;
#X obj 166 148 f;
#X obj 204 134 + 1;
#X obj 204 161 clip 0 2;
#X obj 166 224 bng 19 250 50 0 empty empty empty 0 -10 0 12 #fcfcfc #000000 #000000;
#X obj 184 21 inlet;
#X obj 166 186 select 0 1;
#X connect 0 0 10 0;
#X connect 3 0 16 0;
#X connect 4 0 7 0;
#X connect 5 0 6 0;
#X connect 6 0 4 0;
#X connect 6 1 3 0;
#X connect 7 0 8 0;
#X connect 10 0 11 1;
#X connect 10 0 11 0;
#X connect 10 1 12 1;
#X connect 10 1 12 0;
#X connect 11 0 13 0;
#X connect 12 0 13 1;
#X connect 13 0 14 0;
#X connect 14 0 15 0;
#X connect 15 0 17 0;
#X connect 16 0 15 1;
#X connect 16 0 19 0;
#X connect 16 0 47 0;
#X connect 17 0 18 0;
#X connect 18 0 2 0;
#X connect 19 0 7 1;
#X connect 21 0 24 0;
#X connect 22 0 21 0;
#X connect 23 0 22 0;
#X connect 23 1 26 0;
#X connect 24 0 25 0;
#X connect 24 0 49 0;
#X connect 25 0 24 1;
#X connect 26 0 24 1;
#X connect 27 0 37 0;
#X connect 28 0 35 1;
#X connect 28 0 37 1;
#X connect 29 0 28 0;
#X connect 30 0 33 0;
#X connect 31 0 36 0;
#X connect 32 0 36 0;
#X connect 33 0 34 0;
#X connect 33 0 44 0;
#X connect 34 0 35 0;
#X connect 35 0 27 1;
#X connect 36 0 30 0;
#X connect 36 1 29 0;
#X connect 37 0 42 0;
#X connect 38 0 27 0;
#X connect 39 0 48 0;
#X connect 40 0 43 0;
#X connect 41 0 40 0;
#X connect 42 0 41 0;
#X connect 42 1 40 1;
#X connect 43 0 45 0;
#X connect 44 0 43 1;
#X connect 44 0 53 0;
#X connect 45 0 39 0;
#X connect 46 0 50 1;
#X connect 47 0 45 1;
#X connect 48 0 55 0;
#X connect 49 0 38 0;
#X connect 49 1 46 0;
#X connect 53 0 54 0;
#X connect 55 0 50 0;
#X connect 57 0 58 0;
#X connect 58 0 59 0;
#X connect 60 0 63 0;
#X connect 61 0 62 0;
#X connect 62 0 63 1;
#X connect 63 0 64 0;
#X connect 63 0 68 0;
#X connect 64 0 65 0;
#X connect 65 0 63 1;
#X connect 66 0 2 0;
#X connect 66 0 56 0;
#X connect 66 0 23 0;
#X connect 67 0 61 0;
#X connect 68 0 66 0;
#X connect 68 1 66 0;
#X coords 0 -1 1 1 406 323 2 47 380;
#X restore 50 230 pd fft \$1;
#X obj 32 205 tabplay~ \$0-in;
#X obj 32 170 r \$0-fftbang;
#X connect 1 0 11 0;
#X connect 5 0 4 0;
#X connect 6 0 8 0;
#X connect 6 1 9 0;
#X connect 7 0 6 0;
#X connect 8 0 5 0;
#X connect 9 0 5 1;
#X connect 10 0 2 0;
#X connect 10 0 12 0;
#X connect 10 0 13 1;
#X connect 11 0 2 0;
#X connect 12 0 11 1;
#X connect 14 0 13 0;
#X connect 15 0 14 0;
#X coords 0 -1 1 1 406 323 1 50 230;
