#N canvas 174 304 622 441 12;
#X obj 15 57 cnv 1 550 1 empty empty empty 8 12 0 13 #000000 #000000 0;
#X obj 20 393 cnv 1 550 1 empty empty empty 8 12 0 13 #000000 #000000 0;
#X text 28 75 The fftanalize~ object analize at fft., f 69;
#X text 36 406 see also:;
#X obj 35 154 osc~ 440;
#X obj 35 104 bng 19 250 50 0 empty empty empty 0 -10 0 12 #fcfcfc #000000 #000000;
#X msg 450 186 \; pd dsp \$1;
#X text 475 160 DSP on/off;
#X obj 450 161 tgl 17 0 empty empty empty 17 7 0 10 #dfdfdf #000000 #000000 0 1;
#N canvas 798 320 580 275 reference 0;
#X obj 10 51 cnv 5 550 5 empty empty INLETS: 8 18 0 13 #202020 #000000 0;
#X obj 12 164 cnv 2 550 2 empty empty OUTLET: 8 12 0 13 #202020 #000000 0;
#X obj 12 201 cnv 2 550 2 empty empty ARGUMENT: 8 12 0 13 #202020 #000000 0;
#X obj 11 238 cnv 5 550 5 empty empty empty 8 18 0 13 #202020 #000000 0;
#X obj 12 124 cnv 1 550 1 empty empty 2nd: 8 12 0 13 #7c7c7c #000000 0;
#X obj 10 83 cnv 1 550 1 empty empty 1st: 8 12 0 13 #7c7c7c #000000 0;
#X text 105 94 signal -;
#X text 172 94 signal to analize., f 46;
#X text 118 136 bang -;
#X text 131 174 NONE;
#X text 123 212 int -;
#X text 172 210 analysis window size (2^n)., f 46;
#X text 172 135 perform analysis after window samples are obtained.;
#X text 28 16 [fftanalizes~];
#X text 134 16 - fft analize small type.;
#X restore 420 18 pd reference;
#X text 518 19 <= click;
#X text 28 16 [fftanalizes~];
#X text 134 16 - fft analize small type.;
#X obj 36 188 fftanalizes~ 4096;
#X connect 4 0 13 0;
#X connect 5 0 13 1;
#X connect 8 0 6 0;
#X coords 0 0 1 1 85 60 0;
