#N canvas 174 304 602 303 12;
#X obj 14 54 cnv 1 550 1 empty empty empty 8 12 0 13 #000000 #000000 0;
#X obj 15 253 cnv 1 550 1 empty empty empty 8 12 0 13 #000000 #000000 0;
#X text 130 19 - make hann window table.;
#X text 27 69 The hann object make hann window table., f 69;
#X text 30 264 see also:;
#N canvas 798 320 580 291 reference 0;
#X obj 10 51 cnv 5 550 5 empty empty INLETS: 8 18 0 13 #202020 #000000 0;
#X obj 11 99 cnv 2 550 2 empty empty OUTLET: 8 12 0 13 #202020 #000000 0;
#X obj 11 136 cnv 2 550 2 empty empty ARGUMENT: 8 12 0 13 #202020 #000000 0;
#X obj 10 251 cnv 5 550 5 empty empty empty 8 18 0 13 #202020 #000000 0;
#X text 129 109 NONE;
#X text 124 15 - make hann window table.;
#X text 129 72 NONE;
#X text 88 179 <string> -;
#X obj 13 209 cnv 1 550 1 empty empty 2nd: 8 12 0 13 #7c7c7c #000000 0;
#X obj 11 168 cnv 1 550 1 empty empty 1st: 8 12 0 13 #7c7c7c #000000 0;
#X text 177 179 array name -hann prefix., f 46;
#X text 109 220 <int> -;
#X text 171 220 window size (must be 2^n).;
#X text 29 17 [hann];
#X restore 420 18 pd reference;
#X text 518 19 <= click;
#X obj 71 104 hann \$0 256;
#X obj 30 103 bng 19 250 50 0 empty empty empty 0 -10 0 12 #fcfcfc #000000 #000000;
#X obj 51 145 tabplay~ \$0-hann;
#N canvas 0 50 450 250 (subpatch) 0;
#X array \$0-array1 256 float 2;
#X coords 0 1 256 -1 200 140 1 0 0;
#X restore 191 104 graph;
#X obj 30 182 tabwrite~ \$0-array1;
#X msg 456 131 \; pd dsp \$1;
#X text 481 105 DSP on/off;
#X obj 456 106 tgl 17 0 empty empty empty 17 7 0 10 #dfdfdf #000000 #000000 0 1;
#X text 30 20 [hann];
#X connect 8 0 9 0;
#X connect 8 0 11 0;
#X connect 9 0 11 0;
#X connect 14 0 12 0;
