#N canvas 673 349 484 410 12;
#X obj 68 94 until;
#X obj 68 121 f;
#X obj 118 122 + 1;
#X obj 68 9 loadbang;
#X obj 68 197 *;
#X obj 68 226 cos;
#X obj 68 255 * 0.5;
#X obj 68 282 t b f;
#X obj 58 312 f 0.5;
#X obj 82 342 -;
#X obj 68 145 t f f;
#N canvas 52 52 530 354 (subpatch) 0;
#X array \$1-hann 4096 float 2;
#X coords 0 1 4096 0 200 140 1 0 0;
#X restore 227 211 graph;
#X msg 228 149 \; \$1-hann resize \$2;
#X obj 82 373 tabwrite \$1-hann;
#X obj 68 67 i \$2;
#X obj 228 93 i \$1;
#X obj 292 92 i \$2;
#X obj 68 37 t b b b b;
#X obj 228 121 pack;
#X obj 68 170 / \$2;
#X obj 172 122 2pi;
#X obj 172 153 * 2;
#X connect 0 0 1 0;
#X connect 1 0 2 0;
#X connect 1 0 10 0;
#X connect 2 0 1 1;
#X connect 3 0 17 0;
#X connect 4 0 5 0;
#X connect 5 0 6 0;
#X connect 6 0 7 0;
#X connect 7 0 8 0;
#X connect 7 1 9 1;
#X connect 8 0 9 0;
#X connect 9 0 13 0;
#X connect 10 0 19 0;
#X connect 10 1 13 1;
#X connect 14 0 0 0;
#X connect 15 0 18 0;
#X connect 16 0 18 1;
#X connect 17 0 14 0;
#X connect 17 1 20 0;
#X connect 17 2 15 0;
#X connect 17 3 16 0;
#X connect 18 0 12 0;
#X connect 19 0 4 0;
#X connect 20 0 21 0;
#X connect 21 0 4 1;
