#N canvas 801 98 527 606 12;
#X text 41 14 The following as a list of PureDataAbstructions.;
#X text 23 98 ------------------------- MATH -----------------;
#X obj 28 121 pi;
#X obj 59 121 2pi;
#X text 136 121 - constant;
#X text 20 937 -------------------- AUDIO DELAY ------------------------;
#X obj 25 960 delay~;
#X text 138 960 - delay of sample;
#X text 20 613 -------------------- AUDIO FILTERS ------------------------;
#X obj 26 639 delta~;
#X text 139 639 - difference between sample;
#X text 21 487 ------------- GENERAL AUDIO TOOLS --------------;
#X text 22 512 [fftanalize~];
#X text 24 149 [hann];
#X text 136 147 - make hann table;
#X obj 25 987 z-1~;
#X text 139 986 - one sample delay;
#X text 140 512 - fft analize;
#X text 21 561 ------------ AUDIO GENERATORS AND TABLES -------------;
#X obj 26 586 impuls~;
#X text 140 588 - impuls generator;
#X obj 29 72 coef2biquad;
#X text 137 70 - iir2 coefficient modify to biquad;
#X text 24 46 --------------------- GENERAL --------------------------;
#X obj 280 147 hann-help;
#X obj 285 510 fftanalize~-help;
#X obj 28 174 iir2alpcoef;
#X obj 28 201 iir2apfcoef;
#X text 137 175 - iir2 1st order all pass filter coefficient;
#X text 138 202 - iir2 2nd order all pass filter coefficient;
#X obj 28 229 iir2befcoef;
#X obj 28 256 iir2bpfcoef;
#X text 138 228 - iir2 band elimination filter coefficient;
#X text 137 256 - iir2 band pass filter coefficient;
#X obj 28 283 iir2hpfcoef;
#X obj 28 311 iir2hshelfcoef;
#X obj 28 337 iir2lpfcoef;
#X obj 28 362 iir2lshelfcoef;
#X obj 28 389 iir2peakingcoef;
#X obj 26 664 alp~;
#X obj 26 689 apf~;
#X text 138 283 - iir2 high pass filter coefficient;
#X text 139 310 - iir2 high shelf filter coefficient;
#X text 139 338 - iir2 low pass filter coefficient;
#X text 140 362 - iir2 low shelf filter coefficient;
#X text 140 389 - iir2 peaking filter coefficient;
#X text 138 663 - 1st order all pass filter;
#X text 138 686 - 2nd order all pass filter;
#X obj 26 714 bef~;
#X obj 26 739 bpf~;
#X obj 26 764 hpf~;
#X obj 26 788 lpf~;
#X obj 26 813 hshelf~;
#X obj 26 838 lshelf~;
#X obj 26 864 peaking~;
#X obj 28 415 svfcoef;
#X text 20 442 ---------------------- AUDIO MATH -----------------------;
#X obj 27 464 svfcoef~;
#X text 140 537 - fft analize (s);
#X text 22 537 [fftanalizes~];
#X obj 285 535 fftanalizes~-help;
#X text 140 415 - state variable filter coefficient;
#X text 141 464 - state variable filter coefficient;
#X text 138 713 - 2nd order band elimination filter;
#X text 138 738 - 2nd order band pass filter;
#X text 138 762 - 2nd order high pass filter;
#X text 138 787 - 2nd order low pass filter;
#X text 138 812 - 2nd order high shelf filter;
#X text 138 837 - 2nd order low shelf filter;
#X text 138 862 - 2nd order peaking filter;
#X text 138 888 - state variable filter with constant coefficient;
#X text 138 913 - state variable filter with signal coefficient;
#X obj 71 889 svfcc~;
#X obj 26 889 svfc~;
#X obj 71 914 svfsc~;
#X obj 26 914 svfs~;
