#N canvas 130 130 618 331 12;
#X obj 14 54 cnv 1 550 1 empty empty empty 8 12 0 13 #000000 #000000 0;
#X obj 18 270 cnv 1 550 1 empty empty empty 8 12 0 13 #000000 #000000 0;
#N canvas 772 153 580 454 reference 0;
#X obj 10 51 cnv 5 550 5 empty empty INLETS: 8 18 0 13 #202020 #000000 0;
#X obj 13 235 cnv 2 550 2 empty empty OUTLET: 8 12 0 13 #202020 #000000 0;
#X obj 12 275 cnv 2 550 2 empty empty ARGUMENT: 8 12 0 13 #202020 #000000 0;
#X obj 12 420 cnv 5 550 5 empty empty empty 8 18 0 13 #202020 #000000 0;
#X text 105 96 signal -;
#X text 107 245 signal -;
#X text 172 96 source., f 46;
#X obj 11 123 cnv 1 550 1 empty empty 2nd: 8 12 0 13 #7c7c7c #000000 0;
#X obj 11 81 cnv 1 550 1 empty empty 1st: 8 12 0 13 #7c7c7c #000000 0;
#X text 112 132 float -;
#X text 174 245 filtered., f 46;
#X text 113 310 float -;
#X obj 12 161 cnv 1 550 1 empty empty 3rd: 8 12 0 13 #7c7c7c #000000 0;
#X text 113 170 float -;
#X text 173 171 Q factor., f 46;
#X obj 12 340 cnv 1 550 1 empty empty 2nd: 8 12 0 13 #7c7c7c #000000 0;
#X obj 12 299 cnv 1 550 1 empty empty 1st: 8 12 0 13 #7c7c7c #000000 0;
#X text 113 349 float -;
#X obj 29 19 hshelf~;
#X text 97 18 - 2nd order high shelf filter.;
#X obj 13 379 cnv 1 550 1 empty empty 3rd: 8 12 0 13 #7c7c7c #000000 0;
#X text 114 388 float -;
#X text 174 389 gain., f 46;
#X text 172 348 Q factor., f 46;
#X obj 12 197 cnv 1 550 1 empty empty 4th: 8 12 0 13 #7c7c7c #000000 0;
#X text 113 206 float -;
#X text 173 207 gain., f 46;
#X text 172 133 slope center frequency., f 46;
#X text 173 311 slope center frequency., f 46;
#X restore 438 19 pd reference;
#X text 536 20 <= click;
#X text 29 285 see also:;
#X msg 440 171 \; pd dsp \$1;
#X text 465 145 DSP on/off;
#X obj 440 146 tgl 17 0 empty empty empty 17 7 0 10 #dfdfdf #000000 #000000 0 1;
#X obj 49 115 noise~;
#X obj 49 193 output~;
#X floatatom 119 115 5 0 0 0 - - - 0;
#X floatatom 177 115 5 0 0 0 - - - 0;
#X obj 29 19 hshelf~;
#X text 97 18 - 2nd order high shelf filter.;
#X text 28 69 The hshelf~ object 2nd order high shelf filter., f 73;
#X obj 50 153 hshelf~ 1000 0.5 18;
#X floatatom 235 115 5 0 0 0 - - - 0;
#X connect 7 0 5 0;
#X connect 8 0 15 0;
#X connect 10 0 15 1;
#X connect 11 0 15 2;
#X connect 15 0 9 0;
#X connect 15 0 9 1;
#X connect 16 0 15 3;
