#N canvas 234 234 614 314 12;
#X obj 14 54 cnv 1 550 1 empty empty empty 8 12 0 13 #000000 #000000 0;
#X obj 13 260 cnv 1 550 1 empty empty empty 8 12 0 13 #000000 #000000 0;
#N canvas 729 137 575 463 reference 0;
#X obj 10 51 cnv 5 550 5 empty empty INLETS: 8 18 0 13 #202020 #000000 0;
#X obj 10 217 cnv 2 550 2 empty empty OUTLET: 8 12 0 13 #202020 #000000 0;
#X obj 11 259 cnv 2 550 2 empty empty ARGUMENT: 8 12 0 13 #202020 #000000 0;
#X obj 12 426 cnv 5 550 5 empty empty empty 8 18 0 13 #202020 #000000 0;
#X obj 10 135 cnv 1 550 1 empty empty 2nd: 8 12 0 13 #7c7c7c #000000 0;
#X obj 10 90 cnv 1 550 1 empty empty 1st: 8 12 0 13 #7c7c7c #000000 0;
#X text 110 145 float -;
#X text 116 226 list -;
#X text 170 227 iir2 coefficient., f 46;
#X text 109 102 float -;
#X obj 13 387 cnv 1 550 1 empty empty 3rd: 8 12 0 13 #7c7c7c #000000 0;
#X obj 13 294 cnv 1 550 1 empty empty 1st: 8 12 0 13 #7c7c7c #000000 0;
#X text 112 397 float -;
#X text 110 308 float -;
#X text 172 396 sampling frequency., f 46;
#X obj 11 177 cnv 1 550 1 empty empty 3rd: 8 12 0 13 #7c7c7c #000000 0;
#X text 111 187 float -;
#X text 171 186 sampling frequency., f 46;
#X text 170 144 Q factor., f 46;
#X obj 12 343 cnv 1 550 1 empty empty 2nd: 8 12 0 13 #7c7c7c #000000 0;
#X text 111 353 float -;
#X text 171 352 Q factor., f 46;
#X obj 30 17 iir2bpfcoef;
#X text 127 17 - iir2 band pass filter coefficient.;
#X text 171 103 pass center frequency., f 46;
#X text 172 308 pass center frequency., f 46;
#X restore 440 19 pd reference;
#X text 538 20 <= click;
#X text 26 273 see also:;
#X obj 32 100 bng 19 250 50 0 empty empty empty 0 -10 0 12 #fcfcfc #000000 #000000;
#X msg 32 163 1000;
#X listbox 32 220 41 0 0 0 - - - 0;
#X obj 258 124 bng 19 250 50 0 empty empty empty 0 -10 0 12 #fcfcfc #000000 #000000;
#X listbox 258 189 41 0 0 0 - - - 0;
#X obj 109 273 coef2biquad;
#X obj 32 133 t b b b;
#X msg 76 164 0.707;
#X msg 127 164 44100;
#X obj 29 19 iir2bpfcoef;
#X text 126 19 - iir2 band pass filter coefficient.;
#X text 27 69 The iir2befcoef object outputs iir2 band pass filter coefficient., f 78;
#X obj 32 191 iir2bpfcoef;
#X obj 258 156 iir2bpfcoef 1000 0.707 44100;
#X connect 5 0 11 0;
#X connect 6 0 17 0;
#X connect 8 0 18 0;
#X connect 11 0 6 0;
#X connect 11 1 12 0;
#X connect 11 2 13 0;
#X connect 12 0 17 1;
#X connect 13 0 17 2;
#X connect 17 0 7 0;
#X connect 18 0 9 0;
