#N canvas 215 246 598 300 12;
#X obj 14 54 cnv 1 550 1 empty empty empty 8 12 0 13 #000000 #000000 0;
#X obj 13 260 cnv 1 550 1 empty empty empty 8 12 0 13 #000000 #000000 0;
#N canvas 729 137 575 385 reference 0;
#X obj 10 51 cnv 5 550 5 empty empty INLETS: 8 18 0 13 #202020 #000000 0;
#X obj 11 181 cnv 2 550 2 empty empty OUTLET: 8 12 0 13 #202020 #000000 0;
#X obj 12 223 cnv 2 550 2 empty empty ARGUMENT: 8 12 0 13 #202020 #000000 0;
#X obj 12 346 cnv 5 550 5 empty empty empty 8 18 0 13 #202020 #000000 0;
#X obj 29 19 iir2alpcoef;
#X obj 10 135 cnv 1 550 1 empty empty 2nd: 8 12 0 13 #7c7c7c #000000 0;
#X obj 10 90 cnv 1 550 1 empty empty 1st: 8 12 0 13 #7c7c7c #000000 0;
#X text 110 145 float -;
#X text 117 190 list -;
#X text 171 191 iir2 coefficient., f 46;
#X text 109 102 float -;
#X text 171 102 center frequency of anti-phase., f 46;
#X text 170 144 sampling frequency., f 46;
#X obj 14 305 cnv 1 550 1 empty empty 2nd: 8 12 0 13 #7c7c7c #000000 0;
#X obj 14 258 cnv 1 550 1 empty empty 1st: 8 12 0 13 #7c7c7c #000000 0;
#X text 113 315 float -;
#X text 111 272 float -;
#X text 173 272 center frequency of anti-phase., f 46;
#X text 173 314 sampling frequency., f 46;
#X text 126 19 - iir2 all pass filter coefficient.;
#X restore 420 18 pd reference;
#X text 518 19 <= click;
#X text 26 273 see also:;
#X obj 32 100 bng 19 250 50 0 empty empty empty 0 -10 0 12 #fcfcfc #000000 #000000;
#X obj 29 19 iir2alpcoef;
#X obj 32 191 iir2alpcoef;
#X msg 32 163 1000;
#X msg 106 163 44100;
#X listbox 32 220 27 0 0 0 - - - 0;
#X obj 32 133 t b b;
#X obj 260 190 iir2alpcoef 1000 44100;
#X obj 260 160 bng 19 250 50 0 empty empty empty 0 -10 0 12 #fcfcfc #000000 #000000;
#X listbox 260 220 33 0 0 0 - - - 0;
#X obj 109 273 coef2biquad;
#X text 126 19 - iir2 all pass filter coefficient.;
#X text 27 69 The iir2alpcoef object outputs iir2 1st order all pass filter coefficient., f 77;
#X connect 5 0 11 0;
#X connect 7 0 10 0;
#X connect 8 0 7 0;
#X connect 9 0 7 1;
#X connect 11 0 8 0;
#X connect 11 1 9 0;
#X connect 12 0 14 0;
#X connect 13 0 12 0;
