#N canvas 208 208 618 308 12;
#X obj 14 54 cnv 1 550 1 empty empty empty 8 12 0 13 #000000 #000000 0;
#X obj 13 260 cnv 1 550 1 empty empty empty 8 12 0 13 #000000 #000000 0;
#N canvas 729 137 575 577 reference 0;
#X obj 10 51 cnv 5 550 5 empty empty INLETS: 8 18 0 13 #202020 #000000 0;
#X obj 10 255 cnv 2 550 2 empty empty OUTLET: 8 12 0 13 #202020 #000000 0;
#X obj 11 297 cnv 2 550 2 empty empty ARGUMENT: 8 12 0 13 #202020 #000000 0;
#X obj 14 513 cnv 5 550 5 empty empty empty 8 18 0 13 #202020 #000000 0;
#X obj 10 135 cnv 1 550 1 empty empty 2nd: 8 12 0 13 #7c7c7c #000000 0;
#X obj 10 90 cnv 1 550 1 empty empty 1st: 8 12 0 13 #7c7c7c #000000 0;
#X text 110 145 float -;
#X text 119 264 list -;
#X text 173 265 iir2 coefficient., f 46;
#X text 109 102 float -;
#X obj 15 468 cnv 1 550 1 empty empty 4th: 8 12 0 13 #7c7c7c #000000 0;
#X obj 13 332 cnv 1 550 1 empty empty 1st: 8 12 0 13 #7c7c7c #000000 0;
#X text 114 478 float -;
#X text 110 346 float -;
#X text 174 477 sampling frequency., f 46;
#X obj 11 215 cnv 1 550 1 empty empty 4th: 8 12 0 13 #7c7c7c #000000 0;
#X text 111 225 float -;
#X text 171 224 sampling frequency., f 46;
#X text 170 144 Q factor., f 46;
#X obj 12 381 cnv 1 550 1 empty empty 2nd: 8 12 0 13 #7c7c7c #000000 0;
#X text 111 391 float -;
#X text 171 390 Q factor., f 46;
#X obj 11 176 cnv 1 550 1 empty empty 3rd: 8 12 0 13 #7c7c7c #000000 0;
#X text 111 186 float -;
#X text 171 185 gain., f 46;
#X obj 14 428 cnv 1 550 1 empty empty 3rd: 8 12 0 13 #7c7c7c #000000 0;
#X text 114 438 float -;
#X text 174 437 gain., f 46;
#X obj 29 19 iir2peakingcoef;
#X text 141 19 - iir2 peaking filter coefficient.;
#X text 171 103 center frequency., f 46;
#X text 172 346 center frequency., f 46;
#X restore 440 19 pd reference;
#X text 538 20 <= click;
#X text 26 273 see also:;
#X obj 32 100 bng 19 250 50 0 empty empty empty 0 -10 0 12 #fcfcfc #000000 #000000;
#X msg 32 163 1000;
#X listbox 32 220 43 0 0 0 - - - 0;
#X obj 258 124 bng 19 250 50 0 empty empty empty 0 -10 0 12 #fcfcfc #000000 #000000;
#X listbox 258 189 43 0 0 0 - - - 0;
#X obj 109 273 coef2biquad;
#X msg 76 164 0.707;
#X obj 32 133 t b b b b;
#X msg 127 164 18;
#X msg 164 164 44100;
#X text 141 19 - iir2 peaking filter coefficient.;
#X obj 29 19 iir2peakingcoef;
#X text 27 69 The iir2hshelfcoef object outputs iir2 peaking filter coefficient., f 78;
#X obj 32 191 iir2peakingcoef;
#X obj 258 156 iir2peakingcoef 1000 0.707 18 44100;
#X connect 5 0 12 0;
#X connect 6 0 18 0;
#X connect 8 0 19 0;
#X connect 11 0 18 1;
#X connect 12 0 6 0;
#X connect 12 1 11 0;
#X connect 12 2 13 0;
#X connect 12 3 14 0;
#X connect 13 0 18 2;
#X connect 14 0 18 3;
#X connect 18 0 7 0;
#X connect 19 0 9 0;
