#N canvas 837 155 750 628 12;
#X obj 341 106 inlet;
#X obj 423 106 inlet;
#X obj 501 106 inlet;
#X floatatom 341 226 5 0 0 0 - - - 0;
#X floatatom 423 225 5 0 0 0 - - - 0;
#X floatatom 501 225 5 0 0 0 - - - 0;
#N canvas 1101 221 450 300 omega 0;
#X obj 47 65 inlet;
#X obj 163 65 inlet;
#X obj 79 121 2pi;
#X obj 47 154 *;
#X obj 47 184 /;
#X obj 47 214 outlet;
#X obj 47 93 t f b;
#X text 44 21 omega = 2*pi*frequency/sampleRate, f 36;
#X connect 0 0 6 0;
#X connect 1 0 4 1;
#X connect 2 0 3 1;
#X connect 3 0 4 0;
#X connect 4 0 5 0;
#X connect 6 0 3 0;
#X connect 6 1 2 0;
#X restore 341 258 pd omega;
#X obj 341 308 cos;
#X obj 439 302 sin;
#N canvas 156 156 407 300 alpha 0;
#X obj 46 66 inlet;
#X obj 161 70 inlet;
#X obj 46 184 outlet;
#X text 53 19 alpha = sin/(2*Q) (if Q is specified), f 44;
#X obj 161 114 * 2;
#X obj 46 133 /;
#X connect 0 0 5 0;
#X connect 1 0 4 0;
#X connect 4 0 5 1;
#X connect 5 0 2 0;
#X restore 439 329 pd alpha;
#X obj 506 415 + 1;
#X obj 373 415 * -1;
#X obj 341 360 + 1;
#X obj 341 283 t f f;
#X obj 341 415 / 2;
#X obj 341 471 /;
#X obj 410 471 /;
#X obj 384 357 * -2;
#X obj 442 471 /;
#X obj 439 357 t f f;
#X obj 439 384 * -1;
#X obj 439 413 + 1;
#X obj 474 470 /;
#X obj 341 567 outlet;
#X text 18 11 Cookbook formulae for audio EQ biquad filter coefficients --------------------------------------------------------- by Robert Bristow-Johnson <robert@wavemechanics.com>, f 58;
#X text 23 309 omega = IIR2_omega(freq \, sampleRate) \; cos = IIR2_cos(omega) \; alpha = IIR2_alpha(IIR2_sin(omega) \, Q) \; div = (1.0f + alpha) \;, f 41;
#X obj 341 534 pack f f f f f;
#X obj 341 332 t f f;
#X obj 341 388 t f f;
#X obj 341 498 t f f;
#X obj 593 105 loadbang;
#X obj 571 149 t b b b;
#X obj 520 180 f \$1;
#X obj 594 180 f \$2;
#X obj 668 181 f \$3;
#X text 45 75 HPF: H(s) = s^2 / (s^2 + s/Q + 1), f 38;
#X text 25 106 b0 = (1 + cos)/2 \; b1 = -(1 + cos) \; b2 = (1 + cos)/2 \; a0 = 1 + alpha \; a1 = -2*cos \; a2 = 1 - alpha \;, f 21;
#X text 25 206 a0' = b0 / a0 \; a1' = b1 / a0 \; a2' = b2 / a0 \; b0' = a0 / a0 = 1 \; b1' = a1 / a0 \; b2' = a2 / a0 \;, f 21;
#X connect 0 0 3 0;
#X connect 1 0 4 0;
#X connect 2 0 5 0;
#X connect 3 0 6 0;
#X connect 4 0 9 1;
#X connect 5 0 6 1;
#X connect 6 0 13 0;
#X connect 7 0 27 0;
#X connect 8 0 9 0;
#X connect 9 0 19 0;
#X connect 10 0 15 1;
#X connect 10 0 16 1;
#X connect 10 0 18 1;
#X connect 10 0 22 1;
#X connect 11 0 16 0;
#X connect 12 0 28 0;
#X connect 13 0 7 0;
#X connect 13 1 8 0;
#X connect 14 0 15 0;
#X connect 15 0 29 0;
#X connect 16 0 26 1;
#X connect 17 0 18 0;
#X connect 18 0 26 3;
#X connect 19 0 20 0;
#X connect 19 1 10 0;
#X connect 20 0 21 0;
#X connect 21 0 22 0;
#X connect 22 0 26 4;
#X connect 26 0 23 0;
#X connect 27 0 12 0;
#X connect 27 1 17 0;
#X connect 28 0 14 0;
#X connect 28 1 11 0;
#X connect 29 0 26 0;
#X connect 29 1 26 2;
#X connect 30 0 31 0;
#X connect 31 0 32 0;
#X connect 31 1 33 0;
#X connect 31 2 34 0;
#X connect 32 0 3 0;
#X connect 33 0 4 0;
#X connect 34 0 5 0;
