#N canvas 341 178 750 628 12;
#X obj 341 106 inlet;
#X obj 386 106 inlet;
#X obj 476 106 inlet;
#X floatatom 341 226 5 0 0 0 - - - 0;
#X floatatom 386 226 5 0 0 0 - - - 0;
#X floatatom 477 226 5 0 0 0 - - - 0;
#N canvas 1101 221 450 300 omega 0;
#X obj 47 65 inlet;
#X obj 163 65 inlet;
#X obj 79 121 2pi;
#X obj 47 154 *;
#X obj 47 184 /;
#X obj 47 214 outlet;
#X obj 47 93 t f b;
#X text 44 21 omega = 2*pi*frequency/sampleRate, f 36;
#X connect 0 0 6 0;
#X connect 1 0 4 1;
#X connect 2 0 3 1;
#X connect 3 0 4 0;
#X connect 4 0 5 0;
#X connect 6 0 3 0;
#X connect 6 1 2 0;
#X restore 341 258 pd omega;
#X obj 341 308 cos;
#X obj 401 310 sin;
#N canvas 156 156 407 300 alpha 0;
#X obj 46 66 inlet;
#X obj 161 70 inlet;
#X obj 46 184 outlet;
#X text 53 19 alpha = sin/(2*Q) (if Q is specified), f 44;
#X obj 161 114 * 2;
#X obj 46 133 /;
#X connect 0 0 5 0;
#X connect 1 0 4 0;
#X connect 4 0 5 1;
#X connect 5 0 2 0;
#X restore 436 329 pd alpha;
#X obj 533 456 + 1;
#X obj 341 283 t f f;
#X obj 373 453 * -2;
#X obj 432 498 /;
#X obj 501 431 * -1;
#X obj 501 455 + 1;
#X obj 474 499 /;
#X obj 341 597 outlet;
#X text 18 11 Cookbook formulae for audio EQ biquad filter coefficients --------------------------------------------------------- by Robert Bristow-Johnson <robert@wavemechanics.com>, f 58;
#X text 20 209 a0' = b0 / a0 \; a1' = b1 / a0 \; a2' = b2 / a0 \; b0' = a0 / a0 = 1 \; b1' = a1 / a0 \; b2' = a2 / a0, f 21;
#X obj 341 564 pack f f f f f;
#X obj 546 106 loadbang;
#X obj 495 180 f \$1;
#X obj 540 180 f \$2;
#X obj 586 180 f \$3;
#X obj 436 354 t f f;
#X obj 341 530 f;
#X text 45 75 peakingEQ: H(s) = (s^2 + s*(A/Q) + 1) / (s^2 + s/(A*Q) + 1), f 62;
#X text 20 109 b0 = 1 + alpha*A \; b1 = -2*cos \; b2 = 1 - alpha*A \; a0 = 1 + alpha/A \; a1 = -2*cos \; a2 = 1 - alpha/A \;, f 21;
#X text 16 317 omega = IIR2_omega(freq \, sampleRate) \; cos = IIR2_cos(omega) \; alpha = IIR2_alpha(IIR2_sin(omega) \, Q) \; gain = IIR2_A(dBgain) \; div = (1.0f + alpha / gain) \;, f 41;
#X obj 431 106 inlet;
#X floatatom 431 225 5 0 0 0 - - - 0;
#X obj 546 149 t b b b b;
#X obj 634 180 f \$4;
#N canvas 234 234 450 300 A 0;
#X obj 65 30 inlet;
#X obj 65 197 outlet;
#X obj 65 60 / 40;
#X obj 65 158 pow;
#X obj 65 91 t b f;
#X msg 55 126 10;
#X connect 0 0 2 0;
#X connect 2 0 4 0;
#X connect 3 0 1 0;
#X connect 4 0 5 0;
#X connect 4 1 3 1;
#X connect 5 0 3 0;
#X restore 519 354 pd A;
#X obj 436 381 *;
#X obj 501 382 /;
#X obj 501 407 t f f;
#X obj 436 406 t f f;
#X obj 468 455 + 1;
#X obj 436 430 * -1;
#X obj 436 454 + 1;
#X obj 359 499 /;
#X obj 395 499 /;
#X obj 341 334 t b f;
#X connect 0 0 3 0;
#X connect 1 0 4 0;
#X connect 2 0 5 0;
#X connect 3 0 6 0;
#X connect 4 0 9 1;
#X connect 5 0 6 1;
#X connect 6 0 11 0;
#X connect 7 0 44 0;
#X connect 8 0 9 0;
#X connect 9 0 25 0;
#X connect 10 0 16 1;
#X connect 10 0 13 1;
#X connect 10 0 42 1;
#X connect 10 0 43 1;
#X connect 11 0 7 0;
#X connect 11 1 8 0;
#X connect 12 0 13 0;
#X connect 13 0 20 3;
#X connect 13 0 20 1;
#X connect 14 0 15 0;
#X connect 15 0 16 0;
#X connect 16 0 20 4;
#X connect 20 0 17 0;
#X connect 21 0 32 0;
#X connect 22 0 3 0;
#X connect 23 0 4 0;
#X connect 24 0 31 0;
#X connect 25 0 35 0;
#X connect 25 1 36 0;
#X connect 26 0 20 0;
#X connect 30 0 31 0;
#X connect 31 0 34 0;
#X connect 32 0 22 0;
#X connect 32 1 23 0;
#X connect 32 2 24 0;
#X connect 32 3 33 0;
#X connect 33 0 5 0;
#X connect 34 0 35 1;
#X connect 34 0 36 1;
#X connect 35 0 38 0;
#X connect 36 0 37 0;
#X connect 37 0 14 0;
#X connect 37 1 10 0;
#X connect 38 0 40 0;
#X connect 38 1 39 0;
#X connect 39 0 42 0;
#X connect 40 0 41 0;
#X connect 41 0 43 0;
#X connect 42 0 26 1;
#X connect 43 0 20 2;
#X connect 44 0 26 0;
#X connect 44 1 12 0;
