#N canvas 868 345 533 591 12;
#X obj 24 84 inlet;
#X obj 124 85 inlet;
#X floatatom 24 186 5 0 0 0 - - - 0;
#X floatatom 124 184 5 0 0 0 - - - 0;
#X obj 245 88 loadbang;
#X obj 245 118 t b b;
#X obj 245 146 f \$1;
#X obj 304 146 f \$2;
#X text 20 15 https://www.wizard-notes.com/entry/asp/allpass-filter, f 55;
#X text 25 54 lambda = - (tan(pi*fc/fs) - 1) / (tan(pi*fc/fs) + 1), f 54;
#X obj 56 243 pi;
#X obj 24 280 *;
#X obj 24 216 t f b;
#X obj 24 321 /;
#X obj 24 349 tan;
#X obj 24 377 t f f;
#X obj 56 406 + 1;
#X obj 24 406 - 1;
#X obj 24 435 /;
#X obj 24 523 pack f f f f f;
#X msg 140 490 0;
#X msg 102 490 1;
#X obj 24 461 t f f b;
#X obj 24 553 outlet;
#X connect 0 0 2 0;
#X connect 1 0 3 0;
#X connect 2 0 12 0;
#X connect 3 0 13 1;
#X connect 4 0 5 0;
#X connect 5 0 6 0;
#X connect 5 1 7 0;
#X connect 6 0 2 0;
#X connect 7 0 3 0;
#X connect 10 0 11 1;
#X connect 11 0 13 0;
#X connect 12 0 11 0;
#X connect 12 1 10 0;
#X connect 13 0 14 0;
#X connect 14 0 15 0;
#X connect 15 0 17 0;
#X connect 15 1 16 0;
#X connect 16 0 18 1;
#X connect 17 0 18 0;
#X connect 18 0 22 0;
#X connect 19 0 23 0;
#X connect 20 0 19 4;
#X connect 20 0 19 2;
#X connect 21 0 19 1;
#X connect 22 0 19 0;
#X connect 22 1 19 3;
#X connect 22 2 20 0;
#X connect 22 2 21 0;
