#N canvas 341 178 907 740 12;
#X obj 428 101 inlet;
#X obj 473 101 inlet;
#X obj 564 101 inlet;
#X floatatom 428 204 5 0 0 0 - - - 0;
#X floatatom 473 204 5 0 0 0 - - - 0;
#X floatatom 564 204 5 0 0 0 - - - 0;
#N canvas 1101 221 450 300 omega 0;
#X obj 47 65 inlet;
#X obj 163 65 inlet;
#X obj 79 121 2pi;
#X obj 47 154 *;
#X obj 47 184 /;
#X obj 47 214 outlet;
#X obj 47 93 t f b;
#X text 44 21 omega = 2*pi*frequency/sampleRate, f 36;
#X connect 0 0 6 0;
#X connect 1 0 4 1;
#X connect 2 0 3 1;
#X connect 3 0 4 0;
#X connect 4 0 5 0;
#X connect 6 0 3 0;
#X connect 6 1 2 0;
#X restore 428 236 pd omega;
#X obj 428 286 cos;
#X obj 529 293 sin;
#X obj 633 630 /;
#X obj 681 630 /;
#X obj 428 701 outlet;
#X text 18 11 Cookbook formulae for audio EQ biquad filter coefficients --------------------------------------------------------- by Robert Bristow-Johnson <robert@wavemechanics.com>, f 58;
#X obj 428 677 pack f f f f f;
#X obj 633 101 loadbang;
#X obj 582 158 f \$1;
#X obj 627 158 f \$2;
#X obj 673 158 f \$3;
#X obj 428 653 f;
#X obj 518 101 inlet;
#X floatatom 518 204 5 0 0 0 - - - 0;
#X obj 633 127 t b b b b;
#X obj 721 158 f \$4;
#N canvas 234 234 450 300 A 0;
#X obj 65 30 inlet;
#X obj 65 197 outlet;
#X obj 65 60 / 40;
#X obj 65 158 pow;
#X obj 65 91 t b f;
#X msg 55 126 10;
#X connect 0 0 2 0;
#X connect 2 0 4 0;
#X connect 3 0 1 0;
#X connect 4 0 5 0;
#X connect 4 1 3 1;
#X connect 5 0 3 0;
#X restore 652 239 pd A;
#X obj 446 630 /;
#X obj 548 632 /;
#X text 18 303 omega = IIR2_omega(freq \, sampleRate) \; cos = IIR2_cos(omega) \; sin = IIR2_sin(omega) \; gain = IIR2_A(dBgain) \; beta = IIR2_beta(gain \, Q) \; div = (gain + 1.0f) + (gain - 1.0f) * cos + beta * sin \;, f 56;
#N canvas 52 52 450 300 beta 0;
#X obj 48 25 inlet;
#X obj 48 166 outlet;
#X obj 48 71 sqrt;
#X obj 147 25 inlet;
#X obj 48 115 /;
#X connect 0 0 2 0;
#X connect 2 0 4 0;
#X connect 3 0 4 1;
#X connect 4 0 1 0;
#X restore 662 299 pd beta;
#X obj 590 280 f;
#X obj 644 342 *;
#X obj 844 310 + 1;
#X obj 720 300 - 1;
#X obj 618 508 *;
#X obj 721 339 *;
#X obj 767 450 +;
#X obj 799 580 +;
#X obj 493 630 /;
#X obj 681 587 -;
#X obj 633 561 +;
#X obj 548 572 *;
#X obj 493 572 *;
#X obj 446 575 *;
#X obj 753 415 * -1;
#X obj 446 452 +;
#X obj 493 540 +;
#X obj 767 475 t f f;
#X obj 428 309 t b f f;
#X obj 548 509 -;
#X obj 446 538 +;
#X text 21 209 a0' = b0 / a0 \; a1' = b1 / a0 \; a2' = b2 / a0 \; b0' = a0 / a0 = 1 \; b1' = a1 / a0 \; b2' = a2 / a0 \;, f 21;
#X obj 721 372 t f f;
#X obj 618 533 * -1;
#X obj 428 261 t f f b;
#X text 45 75 highShelf: H(s) = A * (A*s^2 + (sqrt(A)/Q)*s + 1) / (s^2 + (sqrt(A)/Q)*s + A), f 79;
#X text 20 109 b0 = A*[ (A+1) + (A-1)*cos + beta*sin ] \; b1 = -2*A*[ (A-1) + (A+1)*cos ] \; b2 = A*[ (A+1) + (A-1)*cos - beta*sin ] \; a0 = (A+1) - (A-1)*cos + beta*sin \; a1 = 2*[ (A-1) - (A+1)*cos ] \; a2 = (A+1) - (A-1)*cos - beta*sin \;, f 44;
#X obj 633 587 * 2;
#X obj 493 600 * -2;
#X connect 0 0 3 0;
#X connect 1 0 4 0;
#X connect 2 0 5 0;
#X connect 3 0 6 0;
#X connect 4 0 27 1;
#X connect 5 0 6 1;
#X connect 6 0 52 0;
#X connect 7 0 46 0;
#X connect 8 0 29 0;
#X connect 9 0 13 3;
#X connect 10 0 13 4;
#X connect 13 0 11 0;
#X connect 14 0 21 0;
#X connect 15 0 3 0;
#X connect 16 0 4 0;
#X connect 17 0 20 0;
#X connect 18 0 13 0;
#X connect 19 0 20 0;
#X connect 20 0 23 0;
#X connect 21 0 15 0;
#X connect 21 1 16 0;
#X connect 21 2 17 0;
#X connect 21 3 22 0;
#X connect 22 0 5 0;
#X connect 23 0 28 1;
#X connect 23 0 30 0;
#X connect 23 0 31 0;
#X connect 23 0 39 1;
#X connect 23 0 40 1;
#X connect 23 0 41 1;
#X connect 24 0 18 1;
#X connect 25 0 13 2;
#X connect 27 0 29 1;
#X connect 28 0 27 0;
#X connect 29 0 35 1;
#X connect 29 0 37 1;
#X connect 29 0 47 1;
#X connect 29 0 48 1;
#X connect 30 0 32 1;
#X connect 30 0 34 1;
#X connect 30 0 43 1;
#X connect 31 0 33 1;
#X connect 31 0 38 1;
#X connect 31 0 44 1;
#X connect 32 0 44 0;
#X connect 32 0 51 0;
#X connect 33 0 50 0;
#X connect 34 0 45 0;
#X connect 35 0 10 1;
#X connect 35 0 9 1;
#X connect 35 0 25 1;
#X connect 35 0 24 1;
#X connect 35 0 36 1;
#X connect 36 0 13 1;
#X connect 37 0 10 0;
#X connect 38 0 55 0;
#X connect 39 0 25 0;
#X connect 40 0 56 0;
#X connect 41 0 24 0;
#X connect 42 0 34 0;
#X connect 43 0 47 0;
#X connect 43 0 48 0;
#X connect 44 0 40 0;
#X connect 45 0 37 0;
#X connect 45 1 35 0;
#X connect 46 0 18 0;
#X connect 46 1 32 0;
#X connect 46 2 33 0;
#X connect 47 0 39 0;
#X connect 48 0 41 0;
#X connect 50 0 43 0;
#X connect 50 1 42 0;
#X connect 51 0 38 0;
#X connect 52 0 7 0;
#X connect 52 1 8 0;
#X connect 52 2 28 0;
#X connect 55 0 9 0;
#X connect 56 0 36 0;
