#N canvas 174 304 597 299 12;
#X obj 29 19 impuls~;
#X text 97 18 - impuls generator;
#X obj 14 54 cnv 1 550 1 empty empty empty 8 12 0 13 #000000 #000000 0;
#X text 27 69 The impuls~ object outputs impuls at bang imput., f 69;
#X obj 15 261 cnv 1 550 1 empty empty empty 8 12 0 13 #000000 #000000 0;
#X text 29 268 see also:;
#N canvas 729 137 584 205 reference 0;
#X obj 10 51 cnv 5 550 5 empty empty INLETS: 8 18 0 13 #202020 #000000 0;
#X obj 11 99 cnv 2 550 2 empty empty OUTLET: 8 12 0 13 #202020 #000000 0;
#X obj 11 136 cnv 2 550 2 empty empty ARGUMENT: 8 12 0 13 #202020 #000000 0;
#X obj 10 173 cnv 5 550 5 empty empty empty 8 18 0 13 #202020 #000000 0;
#X text 125 146 NONE;
#X text 110 71 bang -;
#X text 165 72 output the pi value., f 41;
#X obj 29 19 impuls~;
#X text 97 18 - impuls generator;
#X text 97 108 signal -;
#X text 165 108 one impuls signal., f 41;
#X restore 420 18 pd reference;
#X text 518 19 <= click;
#X obj 31 108 bng 19 250 50 0 empty empty empty 0 -10 0 12 #fcfcfc #000000 #000000;
#X obj 51 153 impuls~;
#N canvas 0 50 450 250 (subpatch) 0;
#X array \$0-array1 5 float 2;
#X coords 0 1 5 -1 200 140 1;
#X restore 177 112 graph;
#X obj 31 200 tabwrite~ \$0-array1;
#X msg 446 142 \; pd dsp \$1;
#X text 471 116 DSP on/off;
#X obj 446 117 tgl 17 0 empty empty empty 17 7 0 10 #dfdfdf #000000 #000000 0 1;
#X connect 8 0 9 0;
#X connect 8 0 11 0;
#X connect 9 0 11 0;
#X connect 14 0 12 0;
