#N canvas 152 266 450 300 12;
#X msg 72 66 1;
#X obj 72 100 atan;
#X obj 72 26 inlet;
#X obj 72 174 outlet;
#X obj 72 133 * 4;
#X connect 0 0 1 0;
#X connect 1 0 4 0;
#X connect 2 0 0 0;
#X connect 4 0 3 0;
