#N canvas 52 52 486 300 12;
#X obj 49 35 inlet~;
#X obj 49 235 outlet~;
#X obj 252 99 samplerate~;
#X obj 220 35 loadbang;
#X obj 292 35 receive pd-dsp-started;
#X obj 104 35 inlet;
#X obj 148 35 inlet;
#X obj 220 68 t b b;
#X obj 104 146 svfcoef \$1 \$2;
#X obj 49 186 svfcc~;
#X obj 117 236 outlet~;
#X obj 187 237 outlet~;
#X connect 0 0 9 0;
#X connect 2 0 8 2;
#X connect 3 0 7 0;
#X connect 4 0 7 0;
#X connect 5 0 8 0;
#X connect 6 0 8 1;
#X connect 7 0 8 0;
#X connect 7 1 2 0;
#X connect 8 0 9 1;
#X connect 8 1 9 2;
#X connect 9 0 1 0;
#X connect 9 1 10 0;
#X connect 9 2 11 0;
