#N canvas 104 104 627 371 12;
#X obj 14 54 cnv 1 550 1 empty empty empty 8 12 0 13 #000000 #000000 0;
#X obj 12 321 cnv 1 550 1 empty empty empty 8 12 0 13 #000000 #000000 0;
#N canvas 729 137 575 398 reference 0;
#X obj 10 51 cnv 5 550 5 empty empty INLETS: 8 18 0 13 #202020 #000000 0;
#X obj 10 217 cnv 2 550 2 empty empty OUTLET: 8 12 0 13 #202020 #000000 0;
#X obj 10 326 cnv 2 550 2 empty empty ARGUMENT: 8 12 0 13 #202020 #000000 0;
#X obj 11 371 cnv 5 550 5 empty empty empty 8 18 0 13 #202020 #000000 0;
#X obj 10 135 cnv 1 550 1 empty empty 2nd: 8 12 0 13 #7c7c7c #000000 0;
#X obj 10 90 cnv 1 550 1 empty empty 1st: 8 12 0 13 #7c7c7c #000000 0;
#X obj 11 177 cnv 1 550 1 empty empty 3rd: 8 12 0 13 #7c7c7c #000000 0;
#X text 111 187 float -;
#X text 171 186 sampling frequency., f 46;
#X text 170 144 Q factor., f 46;
#X text 171 102 cut off and center frequency., f 46;
#X obj 12 288 cnv 1 550 1 empty empty 2nd: 8 12 0 13 #7c7c7c #000000 0;
#X obj 11 248 cnv 1 550 1 empty empty 1st: 8 12 0 13 #7c7c7c #000000 0;
#X text 172 260 cut off and center frequency parameter., f 46;
#X text 172 298 Q factor parameter., f 46;
#X obj 29 19 svfcoef~;
#X text 103 102 signal -;
#X text 104 146 signal -;
#X text 103 260 signal -;
#X text 103 299 signal -;
#X text 124 344 NONE.;
#X text 126 19 - state variable filter coefficient.;
#X restore 420 18 pd reference;
#X text 518 19 <= click;
#X text 25 334 see also:;
#X obj 62 101 bng 19 250 50 0 empty empty empty 0 -10 0 12 #fcfcfc #000000 #000000;
#X msg 62 164 1000;
#X obj 62 134 t b b b;
#X msg 104 165 0.707;
#X msg 169 166 44100;
#X floatatom 63 285 9 0 0 0 - - - 0;
#X floatatom 137 286 8 0 0 0 - - - 0;
#X obj 110 335 svfcc~;
#X obj 163 336 svfsc~;
#X obj 29 19 svfcoef~;
#X obj 62 223 svfcoef~;
#X obj 63 256 snapshot~;
#X obj 137 256 snapshot~;
#X obj 159 224 bang~;
#X obj 62 193 sig~;
#X obj 104 194 sig~;
#X msg 448 150 \; pd dsp \$1;
#X text 473 124 DSP on/off;
#X obj 448 125 tgl 17 0 empty empty empty 17 7 0 10 #dfdfdf #000000 #000000 0 1;
#X text 126 19 - state variable filter coefficient.;
#X text 27 69 The svfcoef~ object outputs state variable filter coefficient., f 78;
#X connect 5 0 7 0;
#X connect 6 0 19 0;
#X connect 7 0 6 0;
#X connect 7 1 8 0;
#X connect 7 2 9 0;
#X connect 8 0 20 0;
#X connect 9 0 15 2;
#X connect 15 0 16 0;
#X connect 15 1 17 0;
#X connect 16 0 10 0;
#X connect 17 0 11 0;
#X connect 18 0 17 0;
#X connect 18 0 16 0;
#X connect 19 0 15 0;
#X connect 20 0 15 1;
#X connect 23 0 21 0;
