#N canvas 833 386 408 361 12;
#X obj 126 209 t b f;
#X obj 140 271 /;
#X msg 126 242 1;
#X obj 54 295 * 2;
#X obj 54 266 sin;
#X obj 54 205 *;
#X obj 72 178 pi;
#X obj 54 150 t f b;
#X obj 54 17 inlet;
#X obj 126 17 inlet;
#X obj 262 78 f \$1;
#X obj 305 79 f \$2;
#X obj 352 79 f \$3;
#X obj 189 18 inlet;
#X obj 54 236 /;
#X obj 54 322 outlet;
#X obj 140 322 outlet;
#X floatatom 54 124 5 0 0 0 - - - 0;
#X floatatom 126 125 5 0 0 0 - - - 0;
#X floatatom 189 126 5 0 0 0 - - - 0;
#X obj 262 18 loadbang;
#X obj 262 49 t b b b;
#X connect 0 0 2 0;
#X connect 0 1 1 1;
#X connect 1 0 16 0;
#X connect 2 0 1 0;
#X connect 3 0 15 0;
#X connect 4 0 3 0;
#X connect 5 0 14 0;
#X connect 6 0 5 1;
#X connect 7 0 5 0;
#X connect 7 1 6 0;
#X connect 8 0 17 0;
#X connect 9 0 18 0;
#X connect 10 0 17 0;
#X connect 11 0 18 0;
#X connect 12 0 19 0;
#X connect 13 0 19 0;
#X connect 14 0 4 0;
#X connect 17 0 7 0;
#X connect 18 0 0 0;
#X connect 19 0 14 1;
#X connect 20 0 21 0;
#X connect 21 0 10 0;
#X connect 21 1 11 0;
#X connect 21 2 12 0;
