#N canvas 606 324 885 466 12;
#X obj 50 314 fexpr~ (($x1[0] - $f3 * $y2[-1] - $y1[-1]) * $f2 + $y2[-1]) * $f2 + $y1[-1] \; ($x1[0] - $f3 * $y2[-1] - $y1[-1]) * $f2 + $y2[-1] \; $x1[0] - $f3 * $y2[-1] - $y1[-1] \;, f 77;
#X obj 51 252 inlet~;
#X obj 318 257 inlet;
#X obj 586 257 inlet;
#X obj 51 416 outlet~;
#X obj 319 415 outlet~;
#X obj 586 411 outlet~;
#X text 117 251 signal in;
#X text 364 258 float fc coef.;
#X text 640 256 float Q coef.;
#X text 122 419 signal low pass;
#X text 382 415 signal band pass;
#X text 652 412 signal high pass;
#X text 49 7 https://vincentchoqueuse.github.io/personal_website/tutorials/digital_state_filter.html, f 89;
#X text 232 97 |;
#X text 232 81 ^;
#X text 218 59 yh[n];
#X text 372 97 |;
#X text 372 81 ^;
#X text 142 97 +;
#X text 185 97 +;
#X text 289 97 +;
#X text 429 97 +;
#X text 141 130 - ^;
#X text 184 130 - ^;
#X text 289 130 + ^;
#X text 428 131 + ^;
#X text 303 145 |;
#X text 198 145 |;
#X text 373 145 |;
#X text 198 161 '------<|------*---[Z]---';
#X text 373 129 |;
#X text 442 178 |;
#X text 512 178 |;
#X text 155 145 |;
#X text 155 161 |;
#X text 155 177 |;
#X text 442 163 |;
#X text 512 163 |;
#X text 155 193 '----------------------------------------*---[Z]---';
#X text 442 147 |;
#X text 512 147 |;
#X text 92 113 x[n]>---(+)---(+)---*---|>---(+)--------*---|>---(+)--------*--->yl[n], f 73;
#X text 512 131 |;
#X text 259 97 a1;
#X text 400 97 a1;
#X text 245 145 a2;
#X text 365 281 = 2 * sin(pi() * fc / Fs) = a1;
#X text 642 276 = 1 / Q = a2, f 14;
#X text 358 59 yb[n];
#X connect 0 0 4 0;
#X connect 0 1 5 0;
#X connect 0 2 6 0;
#X connect 1 0 0 0;
#X connect 2 0 0 1;
#X connect 3 0 0 2;
