#N canvas 208 208 644 386 12;
#X obj 28 15 svfcc~;
#X text 97 15 - state variable filter with constant coefficient.;
#X obj 14 54 cnv 1 550 1 empty empty empty 8 12 0 13 #000000 #000000 0;
#X obj 14 335 cnv 1 550 1 empty empty empty 8 12 0 13 #000000 #000000 0;
#X text 27 348 see also:;
#X obj 173 103 bng 19 250 50 0 empty empty empty 0 -10 0 12 #fcfcfc #000000 #000000;
#X msg 173 153 1000;
#X obj 173 128 t b b b;
#X msg 217 154 0.707;
#X msg 270 153 44100;
#X obj 136 205 svfcoef;
#X floatatom 64 106 5 0 0 0 - - - 0;
#X obj 64 129 osc~ 1000;
#X obj 65 236 svfcc~;
#X floatatom 103 178 5 0 0 0 - - - 0;
#X floatatom 159 180 5 0.08 100 0 - - - 0;
#X obj 65 273 env~;
#X floatatom 65 300 5 0 0 0 - - - 0;
#X obj 120 273 env~;
#X floatatom 120 300 5 0 0 0 - - - 0;
#X obj 174 273 env~;
#X floatatom 174 300 5 0 0 0 - - - 0;
#X obj 212 104 loadbang;
#X msg 465 166 \; pd dsp \$1;
#X obj 465 141 tgl 17 0 empty empty empty 17 7 0 10 #dfdfdf #000000 #000000 0 1;
#X text 488 140 DSP on/off;
#N canvas 772 153 584 312 reference 0;
#X obj 10 51 cnv 5 550 5 empty empty INLETS: 8 18 0 13 #202020 #000000 0;
#X obj 12 201 cnv 2 550 2 empty empty OUTLET: 8 12 0 13 #202020 #000000 0;
#X obj 11 241 cnv 2 550 2 empty empty ARGUMENT: 8 12 0 13 #202020 #000000 0;
#X obj 11 284 cnv 5 550 5 empty empty empty 8 18 0 13 #202020 #000000 0;
#X text 105 96 signal -;
#X text 106 211 signal -;
#X text 172 96 source., f 46;
#X obj 11 123 cnv 1 550 1 empty empty 2nd: 8 12 0 13 #7c7c7c #000000 0;
#X obj 11 81 cnv 1 550 1 empty empty 1st: 8 12 0 13 #7c7c7c #000000 0;
#X text 112 132 float -;
#X text 173 211 filtered., f 46;
#X obj 12 161 cnv 1 550 1 empty empty 3rd: 8 12 0 13 #7c7c7c #000000 0;
#X text 113 170 float -;
#X obj 28 15 svfcc~;
#X text 97 15 - state variable filter with constant coefficient.;
#X text 126 256 NONE.;
#X text 172 133 cut off and center frequency parameter., f 46;
#X text 173 171 Q factor parameter., f 46;
#X restore 465 15 pd reference;
#X text 563 16 <= click;
#X obj 108 348 svfcoef;
#X text 27 69 The svfcc~ object state variable filter with constant coefficient., f 78;
#X connect 5 0 7 0;
#X connect 6 0 14 0;
#X connect 7 0 6 0;
#X connect 7 1 8 0;
#X connect 7 2 9 0;
#X connect 8 0 15 0;
#X connect 9 0 10 2;
#X connect 10 0 13 1;
#X connect 10 1 13 2;
#X connect 11 0 12 0;
#X connect 12 0 13 0;
#X connect 13 0 16 0;
#X connect 13 1 18 0;
#X connect 13 2 20 0;
#X connect 14 0 10 0;
#X connect 15 0 10 1;
#X connect 16 0 17 0;
#X connect 18 0 19 0;
#X connect 20 0 21 0;
#X connect 22 0 7 0;
#X connect 24 0 23 0;
