#N canvas 1257 384 408 304 12;
#X msg 141 125 1;
#X obj 51 124 pi;
#X obj 243 19 inlet;
#X obj 33 17 inlet~;
#X obj 183 19 inlet~;
#X obj 311 19 loadbang;
#X obj 33 151 *~;
#X obj 33 182 /~;
#X obj 33 241 *~ 2;
#X obj 33 268 outlet~;
#X obj 163 268 outlet~;
#X obj 141 184 sig~;
#X obj 163 215 /~;
#X obj 33 213 expr~ sin($v1);
#X obj 243 143 f 44100;
#X obj 243 92 t b f;
#X obj 311 50 t b b;
#X connect 0 0 11 0;
#X connect 1 0 6 1;
#X connect 2 0 15 0;
#X connect 3 0 6 0;
#X connect 4 0 12 1;
#X connect 5 0 0 0;
#X connect 5 0 16 0;
#X connect 6 0 7 0;
#X connect 7 0 13 0;
#X connect 8 0 9 0;
#X connect 11 0 12 0;
#X connect 12 0 10 0;
#X connect 13 0 8 0;
#X connect 14 0 7 1;
#X connect 15 0 14 0;
#X connect 15 1 14 1;
#X connect 16 0 1 0;
#X connect 16 1 14 0;
