#N canvas 104 104 627 315 12;
#X obj 14 54 cnv 1 550 1 empty empty empty 8 12 0 13 #000000 #000000 0;
#X obj 13 260 cnv 1 550 1 empty empty empty 8 12 0 13 #000000 #000000 0;
#N canvas 729 137 575 531 reference 0;
#X obj 10 51 cnv 5 550 5 empty empty INLETS: 8 18 0 13 #202020 #000000 0;
#X obj 10 217 cnv 2 550 2 empty empty OUTLET: 8 12 0 13 #202020 #000000 0;
#X obj 10 326 cnv 2 550 2 empty empty ARGUMENT: 8 12 0 13 #202020 #000000 0;
#X obj 11 493 cnv 5 550 5 empty empty empty 8 18 0 13 #202020 #000000 0;
#X obj 10 135 cnv 1 550 1 empty empty 2nd: 8 12 0 13 #7c7c7c #000000 0;
#X obj 10 90 cnv 1 550 1 empty empty 1st: 8 12 0 13 #7c7c7c #000000 0;
#X text 110 145 float -;
#X text 109 102 float -;
#X obj 12 454 cnv 1 550 1 empty empty 3rd: 8 12 0 13 #7c7c7c #000000 0;
#X obj 12 361 cnv 1 550 1 empty empty 1st: 8 12 0 13 #7c7c7c #000000 0;
#X text 111 464 float -;
#X text 109 375 float -;
#X text 171 463 sampling frequency., f 46;
#X obj 11 177 cnv 1 550 1 empty empty 3rd: 8 12 0 13 #7c7c7c #000000 0;
#X text 111 187 float -;
#X text 171 186 sampling frequency., f 46;
#X text 170 144 Q factor., f 46;
#X obj 11 410 cnv 1 550 1 empty empty 2nd: 8 12 0 13 #7c7c7c #000000 0;
#X text 110 420 float -;
#X text 170 419 Q factor., f 46;
#X obj 29 19 svfcoef;
#X text 171 102 cut off and center frequency., f 46;
#X text 171 375 cut off and center frequency., f 46;
#X obj 12 288 cnv 1 550 1 empty empty 2nd: 8 12 0 13 #7c7c7c #000000 0;
#X obj 11 248 cnv 1 550 1 empty empty 1st: 8 12 0 13 #7c7c7c #000000 0;
#X text 111 299 float -;
#X text 110 260 float -;
#X text 172 260 cut off and center frequency parameter., f 46;
#X text 172 298 Q factor parameter., f 46;
#X text 126 19 - state variable filter coefficient.;
#X restore 420 18 pd reference;
#X text 518 19 <= click;
#X text 26 273 see also:;
#X obj 53 100 bng 19 250 50 0 empty empty empty 0 -10 0 12 #fcfcfc #000000 #000000;
#X msg 53 163 1000;
#X obj 279 124 bng 19 250 50 0 empty empty empty 0 -10 0 12 #fcfcfc #000000 #000000;
#X obj 53 133 t b b b;
#X msg 97 164 0.707;
#X msg 148 165 44100;
#X obj 29 19 svfcoef;
#X obj 53 191 svfcoef;
#X floatatom 53 224 9 0 0 0 - - - 0;
#X floatatom 127 225 8 0 0 0 - - - 0;
#X obj 279 156 svfcoef 1000 0.707 44100;
#X floatatom 279 190 9 0 0 0 - - - 0;
#X floatatom 444 190 8 0 0 0 - - - 0;
#X obj 361 125 bng 19 250 50 0 empty empty empty 0 -10 0 12 #fcfcfc #000000 #000000;
#X obj 111 274 svfcc~;
#X obj 164 275 svfsc~;
#X text 126 19 - state variable filter coefficient.;
#X text 27 69 The svfcoef object outputs state variable filter coefficient., f 78;
#X connect 5 0 8 0;
#X connect 6 0 12 0;
#X connect 7 0 15 0;
#X connect 8 0 6 0;
#X connect 8 1 9 0;
#X connect 8 2 10 0;
#X connect 9 0 12 1;
#X connect 10 0 12 2;
#X connect 12 0 13 0;
#X connect 12 1 14 0;
#X connect 15 0 16 0;
#X connect 15 1 17 0;
#X connect 18 0 15 1;
