#N canvas 208 208 655 386 12;
#X text 97 15 - state variable filter with constant coefficient.;
#X obj 14 54 cnv 1 550 1 empty empty empty 8 12 0 13 #000000 #000000 0;
#X obj 14 335 cnv 1 550 1 empty empty empty 8 12 0 13 #000000 #000000 0;
#X text 27 348 see also:;
#X floatatom 64 118 5 0 0 0 - - - 0;
#X obj 64 145 osc~ 1000;
#X floatatom 118 176 5 0 22050 0 - - - 0;
#X floatatom 173 177 5 0.08 100 0 - - - 0;
#X obj 64 253 env~;
#X floatatom 64 280 5 0 0 0 - - - 0;
#X obj 118 253 env~;
#X floatatom 118 280 5 0 0 0 - - - 0;
#X obj 174 252 env~;
#X floatatom 174 279 5 0 0 0 - - - 0;
#X msg 465 166 \; pd dsp \$1;
#X obj 465 141 tgl 17 0 empty empty empty 17 7 0 10 #dfdfdf #000000 #000000 0 1;
#X text 488 140 DSP on/off;
#N canvas 772 153 584 381 reference 0;
#X obj 10 51 cnv 5 550 5 empty empty INLETS: 8 18 0 13 #202020 #000000 0;
#X obj 12 201 cnv 2 550 2 empty empty OUTLET: 8 12 0 13 #202020 #000000 0;
#X obj 11 241 cnv 2 550 2 empty empty ARGUMENT: 8 12 0 13 #202020 #000000 0;
#X obj 11 349 cnv 5 550 5 empty empty empty 8 18 0 13 #202020 #000000 0;
#X text 105 96 signal -;
#X text 106 211 signal -;
#X text 172 96 source., f 46;
#X obj 11 123 cnv 1 550 1 empty empty 2nd: 8 12 0 13 #7c7c7c #000000 0;
#X obj 11 81 cnv 1 550 1 empty empty 1st: 8 12 0 13 #7c7c7c #000000 0;
#X text 112 132 float -;
#X text 173 211 filtered., f 46;
#X obj 12 161 cnv 1 550 1 empty empty 3rd: 8 12 0 13 #7c7c7c #000000 0;
#X text 113 170 float -;
#X text 97 15 - state variable filter with constant coefficient.;
#X obj 28 15 svfc~;
#X obj 12 310 cnv 1 550 1 empty empty 2nd: 8 12 0 13 #7c7c7c #000000 0;
#X obj 12 268 cnv 1 550 1 empty empty 1st: 8 12 0 13 #7c7c7c #000000 0;
#X text 112 281 float -;
#X text 112 322 float -;
#X text 172 282 cut off and center frequency., f 46;
#X text 172 323 Q factor., f 46;
#X text 172 133 cut off and center frequency., f 46;
#X text 173 171 Q factor., f 46;
#X restore 465 15 pd reference;
#X text 563 16 <= click;
#X obj 28 15 svfc~;
#X obj 64 216 svfc~ 1000 0.707;
#X text 27 69 The svfc~ object state variable filter with constant coefficient., f 78;
#X connect 4 0 5 0;
#X connect 5 0 20 0;
#X connect 6 0 20 1;
#X connect 7 0 20 2;
#X connect 8 0 9 0;
#X connect 10 0 11 0;
#X connect 12 0 13 0;
#X connect 15 0 14 0;
#X connect 20 0 8 0;
#X connect 20 1 10 0;
#X connect 20 2 12 0;
