#N canvas 52 52 486 300 12;
#X obj 49 35 inlet~;
#X obj 49 235 outlet~;
#X obj 220 98 samplerate~;
#X obj 220 35 loadbang;
#X obj 292 35 receive pd-dsp-started;
#X obj 117 236 outlet~;
#X obj 187 237 outlet~;
#X obj 104 35 inlet~;
#X obj 156 35 inlet~;
#X obj 104 146 svfcoef~;
#X obj 49 186 svfsc~;
#X connect 0 0 10 0;
#X connect 2 0 9 2;
#X connect 3 0 2 0;
#X connect 4 0 2 0;
#X connect 7 0 9 0;
#X connect 8 0 9 1;
#X connect 9 0 10 1;
#X connect 9 1 10 2;
#X connect 10 0 1 0;
#X connect 10 1 5 0;
#X connect 10 2 6 0;
