#N canvas 208 208 655 386 12;
#X obj 14 54 cnv 1 550 1 empty empty empty 8 12 0 13 #000000 #000000 0;
#X obj 14 335 cnv 1 550 1 empty empty empty 8 12 0 13 #000000 #000000 0;
#X text 27 348 see also:;
#X floatatom 64 118 5 0 0 0 - - - 0;
#X obj 64 145 osc~ 1000;
#X floatatom 146 182 5 0 22050 0 - - - 0;
#X floatatom 200 183 5 0.08 100 0 - - - 0;
#X obj 64 278 env~;
#X floatatom 64 305 5 0 0 0 - - - 0;
#X obj 118 278 env~;
#X floatatom 118 305 5 0 0 0 - - - 0;
#X obj 174 277 env~;
#X floatatom 174 304 5 0 0 0 - - - 0;
#X msg 465 166 \; pd dsp \$1;
#X obj 465 141 tgl 17 0 empty empty empty 17 7 0 10 #dfdfdf #000000 #000000 0 1;
#X text 488 140 DSP on/off;
#N canvas 772 153 584 311 reference 0;
#X obj 10 51 cnv 5 550 5 empty empty INLETS: 8 18 0 13 #202020 #000000 0;
#X obj 12 201 cnv 2 550 2 empty empty OUTLET: 8 12 0 13 #202020 #000000 0;
#X obj 11 241 cnv 2 550 2 empty empty ARGUMENT: 8 12 0 13 #202020 #000000 0;
#X obj 13 286 cnv 5 550 5 empty empty empty 8 18 0 13 #202020 #000000 0;
#X text 105 96 signal -;
#X text 106 211 signal -;
#X text 172 96 source., f 46;
#X obj 11 123 cnv 1 550 1 empty empty 2nd: 8 12 0 13 #7c7c7c #000000 0;
#X obj 11 81 cnv 1 550 1 empty empty 1st: 8 12 0 13 #7c7c7c #000000 0;
#X text 173 211 filtered., f 46;
#X obj 12 161 cnv 1 550 1 empty empty 3rd: 8 12 0 13 #7c7c7c #000000 0;
#X text 172 133 cut off and center frequency., f 46;
#X text 173 171 Q factor., f 46;
#X obj 28 15 svfs~;
#X text 97 15 - state variable filter with signal coefficient.;
#X text 105 132 signal -;
#X text 105 172 signal -;
#X text 126 257 NONE.;
#X restore 465 15 pd reference;
#X text 563 16 <= click;
#X obj 28 15 svfs~;
#X text 97 15 - state variable filter with signal coefficient.;
#X text 27 69 The svfs~ object state variable filter with signal coefficient., f 78;
#X obj 64 241 svfs~;
#X obj 146 208 sig~;
#X obj 200 209 sig~;
#X msg 146 155 1000;
#X msg 200 155 0.707;
#X obj 207 120 loadbang;
#X obj 146 120 bng 19 250 50 0 empty empty empty 0 -10 0 12 #fcfcfc #000000 #000000;
#X connect 3 0 4 0;
#X connect 4 0 21 0;
#X connect 5 0 22 0;
#X connect 6 0 23 0;
#X connect 7 0 8 0;
#X connect 9 0 10 0;
#X connect 11 0 12 0;
#X connect 14 0 13 0;
#X connect 21 0 7 0;
#X connect 21 1 9 0;
#X connect 21 2 11 0;
#X connect 22 0 21 1;
#X connect 23 0 21 2;
#X connect 24 0 5 0;
#X connect 25 0 6 0;
#X connect 26 0 25 0;
#X connect 26 0 24 0;
#X connect 27 0 24 0;
#X connect 27 0 25 0;
