#N canvas 222 244 623 333 12;
#X obj 14 54 cnv 1 550 1 empty empty empty 8 12 0 13 #000000 #000000 0;
#X obj 16 284 cnv 1 550 1 empty empty empty 8 12 0 13 #000000 #000000 0;
#X obj 29 19 z-1~;
#X text 97 18 - one sample delay;
#X text 27 69 The z-1~ object outputs one sample delay of the input., f 69;
#X text 26 101 Caution feedback occurs one block delay., f 69;
#X text 29 295 see also:;
#N canvas 772 153 580 213 reference 0;
#X obj 10 51 cnv 5 550 5 empty empty INLETS: 8 18 0 13 #202020 #000000 0;
#X obj 11 99 cnv 2 550 2 empty empty OUTLET: 8 12 0 13 #202020 #000000 0;
#X obj 11 136 cnv 2 550 2 empty empty ARGUMENT: 8 12 0 13 #202020 #000000 0;
#X obj 11 173 cnv 5 550 5 empty empty empty 8 18 0 13 #202020 #000000 0;
#X text 103 70 signal -;
#X text 103 109 signal -;
#X text 103 148 NONE;
#X text 170 70 source., f 46;
#X obj 32 16 z-1~;
#X text 101 15 - one sample delay;
#X text 170 109 one sample delay out., f 46;
#X restore 438 19 pd reference;
#X text 536 20 <= click;
#X obj 46 162 impuls~;
#X obj 27 129 bng 19 250 50 0 empty empty empty 0 -10 0 12 #fcfcfc #000000 #000000;
#X obj 57 194 z-1~;
#N canvas 0 50 450 250 (subpatch) 0;
#X array \$0-array1 5 float 2;
#X coords 0 1 5 -1 100 70 1 0 0;
#X restore 113 148 graph;
#X obj 27 252 tabwrite~ \$0-array1;
#N canvas 0 50 450 250 (subpatch) 0;
#X array \$0-array2 5 float 2;
#X coords 0 1 5 -1 100 70 1 0 0;
#X restore 222 148 graph;
#X obj 43 227 tabwrite~ \$0-array2;
#X msg 455 177 \; pd dsp \$1;
#X text 480 151 DSP on/off;
#X obj 455 152 tgl 17 0 empty empty empty 17 7 0 10 #dfdfdf #000000 #000000 0 1;
#X connect 9 0 11 0;
#X connect 9 0 13 0;
#X connect 10 0 9 0;
#X connect 10 0 13 0;
#X connect 10 0 15 0;
#X connect 11 0 15 0;
#X connect 18 0 16 0;
