#N canvas 361 124 1306 726 12;
#X declare -path ../abstractions;
#X obj 52 343 output~;
#X obj 326 37 bng 19 250 50 0 empty empty empty 0 -10 0 12 #fcfcfc #000000 #000000;
#N canvas 156 156 450 250 (subpatch) 0;
#X array test1 480 float 2;
#X coords 0 1 480 -1 480 318 1 0 0;
#X restore 483 22 graph;
#X floatatom 112 251 5 0 500 0 - - - 0;
#X obj 146 121 hsl 162 19 0 1 0 0 empty empty empty -2 -10 0 12 #c6ffc7 #000000 #000000 0 1;
#X obj 114 150 *~;
#X obj 52 168 +~;
#X floatatom 158 152 5 0 0 0 - - - 0;
#X obj 139 344 send~ a;
#X obj 114 94 receive~ a;
#X obj 52 94 impuls~;
#X obj 326 295 tabwrite~ test1;
#X obj 52 276 delay~ 90;
#X obj 113 226 2048;
#X obj 113 195 loadbang;
#X obj 17 57 osc~ 440;
#X floatatom 18 20 6 0 0 0 - - - 0;
#X obj 85 195 bng 19 250 50 0 empty empty empty 0 -10 0 12 #fcfcfc #000000 #000000;
#X obj 237 347 fftanalize~ 8192;
#X obj 658 348 fftanalize~ 16384;
#X obj 1083 124 adc~;
#X obj 1071 218 tgl 19 0 empty empty empty 0 -10 0 12 #fcfcfc #000000 #000000 0 1;
#X obj 1058 277 metro 1000;
#X obj 1007 10 declare -path ../abstractions;
#X connect 1 0 10 0;
#X connect 1 0 11 0;
#X connect 1 0 18 1;
#X connect 1 0 19 1;
#X connect 3 0 12 1;
#X connect 4 0 5 1;
#X connect 4 0 7 0;
#X connect 5 0 6 1;
#X connect 6 0 12 0;
#X connect 9 0 5 0;
#X connect 12 0 0 0;
#X connect 12 0 0 1;
#X connect 12 0 8 0;
#X connect 12 0 11 0;
#X connect 12 0 18 0;
#X connect 12 0 19 0;
#X connect 13 0 3 0;
#X connect 14 0 13 0;
#X connect 15 0 6 0;
#X connect 16 0 15 0;
#X connect 17 0 13 0;
#X connect 20 0 19 0;
#X connect 21 0 22 0;
#X connect 22 0 1 0;
