#N canvas 792 169 722 555 12;
#X declare -path ../abstractions;
#X obj 8 8 declare -path ../abstractions;
#X obj 232 44 bng 19 250 50 0 empty empty empty 0 -10 0 12 #fcfcfc #000000 #000000;
#X obj 34 86 impuls~;
#X obj 33 141 delay~ 93;
#X obj 159 85 loadbang;
#X obj 53 247 svfcoef;
#X obj 142 211 samplerate~;
#X msg 53 211 1000;
#X msg 102 211 1;
#X obj 96 180 t b b b;
#X obj 34 174 *~ 100;
#X msg 93 114 4096;
#X obj 35 328 fftanalizes~ 8192;
#X obj 249 328 fftanalizes~ 8192;
#X obj 465 328 fftanalizes~ 8192;
#X obj 391 89 svfcoef;
#X obj 522 90 svfcoef~;
#X msg 437 54 44100;
#X obj 547 55 sig~;
#X obj 505 55 sig~;
#X floatatom 391 11 5 0 0 0 - - - 0;
#X floatatom 443 11 5 0 0 0 - - - 0;
#X floatatom 391 125 5 0 0 0 - - - 0;
#X floatatom 437 125 5 0 0 0 - - - 0;
#X floatatom 522 162 5 0 0 0 - - - 0;
#X obj 522 136 snapshot~;
#X floatatom 600 163 5 0 0 0 - - - 0;
#X obj 600 136 snapshot~;
#X obj 616 90 bang~;
#X obj 34 274 svfsc~;
#X connect 1 0 2 0;
#X connect 1 0 12 1;
#X connect 1 0 13 1;
#X connect 1 0 14 1;
#X connect 2 0 3 0;
#X connect 3 0 10 0;
#X connect 4 0 11 0;
#X connect 4 0 9 0;
#X connect 5 0 29 1;
#X connect 5 1 29 2;
#X connect 6 0 5 2;
#X connect 7 0 5 0;
#X connect 8 0 5 1;
#X connect 9 0 7 0;
#X connect 9 1 8 0;
#X connect 9 2 6 0;
#X connect 10 0 29 0;
#X connect 11 0 3 1;
#X connect 15 0 22 0;
#X connect 15 1 23 0;
#X connect 16 0 25 0;
#X connect 16 1 27 0;
#X connect 17 0 16 2;
#X connect 17 0 15 2;
#X connect 18 0 16 1;
#X connect 19 0 16 0;
#X connect 20 0 15 0;
#X connect 20 0 19 0;
#X connect 21 0 15 1;
#X connect 21 0 18 0;
#X connect 25 0 24 0;
#X connect 27 0 26 0;
#X connect 28 0 27 0;
#X connect 28 0 25 0;
#X connect 29 0 12 0;
#X connect 29 1 13 0;
#X connect 29 2 14 0;
