#N canvas 792 169 889 689 12;
#X declare -path ../abstractions;
#X obj 8 8 declare -path ../abstractions;
#X obj 156 43 bng 19 250 50 0 empty empty empty 0 -10 0 12 #fcfcfc #000000 #000000;
#X msg 389 40 48000;
#X obj 132 157 print;
#X obj 184 180 biquad~;
#X obj 184 351 fftanalize~ 8192;
#X obj 582 22 bng 19 250 50 0 empty empty empty 0 -10 0 12 #fcfcfc #000000 #000000;
#X obj 474 84 impuls~;
#X msg 533 112 4096;
#X obj 184 121 coef2biquad;
#X msg 204 41 2000;
#X obj 473 139 delay~ 93;
#X obj 427 207 bpf~ 1000 0.707;
#X obj 193 207 lpf~ 1000 0.707;
#X obj 309 207 hpf~ 1000 0.707;
#X obj 673 164 bef~ 1000 0.707;
#X obj 672 202 apf~ 1000 0.707;
#X msg 324 42 -18;
#X msg 264 43 10;
#X obj 672 245 peaking~ 1000 0.707 18;
#X obj 674 289 lshelf~ 1000 0.707 18;
#X obj 184 85 iir2hshelfcoef 1000 0.707 18 44100;
#X obj 674 321 hshelf~ 1000 0.707 18;
#X connect 1 0 21 0;
#X connect 2 0 21 3;
#X connect 4 0 5 0;
#X connect 6 0 5 1;
#X connect 6 0 7 0;
#X connect 7 0 11 0;
#X connect 8 0 11 1;
#X connect 9 0 4 0;
#X connect 9 0 3 0;
#X connect 10 0 21 0;
#X connect 11 0 22 0;
#X connect 12 0 5 0;
#X connect 13 0 5 0;
#X connect 14 0 5 0;
#X connect 15 0 5 0;
#X connect 16 0 5 0;
#X connect 17 0 21 2;
#X connect 18 0 21 1;
#X connect 19 0 5 0;
#X connect 20 0 5 0;
#X connect 21 0 9 0;
#X connect 22 0 5 0;
